<mxfile host="app.diagrams.net" modified="2021-05-19T06:41:19.929Z" agent="5.0 (Windows)" etag="Ta11VeCYDzzvqef4nsGO" version="14.6.13" type="github">
  <diagram id="_Oj-c2wmKwDQSt-AS6IX" name="Page-1">
    <mxGraphModel dx="1935" dy="451" grid="1" gridSize="10" guides="1" tooltips="1" connect="1" arrows="1" fold="1" page="1" pageScale="1" pageWidth="827" pageHeight="1169" math="0" shadow="0">
      <root>
        <mxCell id="0" />
        <mxCell id="1" parent="0" />
        <UserObject label="&lt;font color=&quot;#F7F7F7&quot;&gt;Ticket is opened&lt;/font&gt;" lucidchartObjectId="IXDDh~dM_vgv" id="rOXqwB_3zVNSecRi6AGg-1">
          <mxCell style="html=1;overflow=block;blockSpacing=1;whiteSpace=wrap;shape=parallelogram;perimeter=parallelogramPerimeter;anchorPointDirection=0;whiteSpace=wrap;fontSize=16.7;fontColor=#333333;spacing=3.8;strokeColor=#5e5e5e;strokeOpacity=100;rounded=1;absoluteArcSize=1;arcSize=9;strokeWidth=2.3;fillColor=#303030;" parent="1" vertex="1">
            <mxGeometry x="660" y="15" width="180" height="60" as="geometry" />
          </mxCell>
        </UserObject>
        <UserObject label="Contributors take care of it" lucidchartObjectId="EYDD6k~qlUJM" id="rOXqwB_3zVNSecRi6AGg-2">
          <mxCell style="html=1;overflow=block;blockSpacing=1;whiteSpace=wrap;;whiteSpace=wrap;fontSize=16.7;fontColor=#333333;spacing=9;strokeColor=#5e5e5e;strokeOpacity=100;rounded=1;absoluteArcSize=1;arcSize=9;strokeWidth=2.3;" parent="1" vertex="1">
            <mxGeometry x="690" y="120" width="120" height="90" as="geometry" />
          </mxCell>
        </UserObject>
        <UserObject label="" lucidchartObjectId="QYDD0R_4If_x" id="rOXqwB_3zVNSecRi6AGg-3">
          <mxCell style="html=1;jettySize=18;whiteSpace=wrap;fontSize=13;strokeColor=#5E5E5E;strokeWidth=1.5;rounded=1;arcSize=12;edgeStyle=orthogonalEdgeStyle;startArrow=none;;endArrow=block;endFill=1;;exitX=0.5;exitY=1.019;exitPerimeter=0;entryX=0.5;entryY=-0.012;entryPerimeter=0;" parent="1" source="rOXqwB_3zVNSecRi6AGg-1" target="rOXqwB_3zVNSecRi6AGg-2" edge="1">
            <mxGeometry width="100" height="100" relative="1" as="geometry">
              <Array as="points" />
            </mxGeometry>
          </mxCell>
        </UserObject>
        <mxCell id="rOXqwB_3zVNSecRi6AGg-4" value="" style="strokeColor=none;fillColor=none;whiteSpace=wrap;fontSize=16.7;fontColor=#333333;spacing=3.8;strokeOpacity=100;rounded=1;absoluteArcSize=1;arcSize=9;strokeWidth=2.3;html=1;" parent="1" vertex="1">
          <mxGeometry x="825" y="105" width="135" height="120" as="geometry" />
        </mxCell>
        <mxCell id="rOXqwB_3zVNSecRi6AGg-5" value="" style="shape=curlyBracket;rounded=1;flipH=1;whiteSpace=wrap;fontSize=16.7;fontColor=#333333;spacing=3.8;strokeColor=#5e5e5e;strokeOpacity=100;strokeWidth=2.3;" parent="rOXqwB_3zVNSecRi6AGg-4" vertex="1">
          <mxGeometry width="15" height="120" as="geometry" />
        </mxCell>
        <mxCell id="rOXqwB_3zVNSecRi6AGg-6" value="Of course, do it as best as possible" style="strokeColor=none;fillColor=none;whiteSpace=wrap;fontSize=16.7;fontColor=#333333;spacing=3.8;strokeOpacity=100;rounded=1;absoluteArcSize=1;arcSize=9;strokeWidth=2.3;" parent="rOXqwB_3zVNSecRi6AGg-4" vertex="1">
          <mxGeometry x="15" width="120" height="120" as="geometry" />
        </mxCell>
        <UserObject label="Is it a whisetleblow?" lucidchartObjectId="YZDDHXIXtVoK" id="rOXqwB_3zVNSecRi6AGg-7">
          <mxCell style="html=1;overflow=block;blockSpacing=1;whiteSpace=wrap;rhombus;whiteSpace=wrap;fontSize=16.7;fontColor=#333333;spacing=3.8;strokeColor=#5e5e5e;strokeOpacity=100;rounded=1;absoluteArcSize=1;arcSize=9;strokeWidth=2.3;" parent="1" vertex="1">
            <mxGeometry x="668" y="255" width="165" height="105" as="geometry" />
          </mxCell>
        </UserObject>
        <UserObject label="" lucidchartObjectId="5ZDDuSpyy-_K" id="rOXqwB_3zVNSecRi6AGg-8">
          <mxCell style="html=1;jettySize=18;whiteSpace=wrap;fontSize=13;strokeColor=#5E5E5E;strokeWidth=1.5;rounded=1;arcSize=12;edgeStyle=orthogonalEdgeStyle;startArrow=none;;endArrow=block;endFill=1;;exitX=0.5;exitY=1.013;exitPerimeter=0;entryX=0.5;entryY=0.003;entryPerimeter=0;" parent="1" source="rOXqwB_3zVNSecRi6AGg-2" target="rOXqwB_3zVNSecRi6AGg-7" edge="1">
            <mxGeometry width="100" height="100" relative="1" as="geometry">
              <Array as="points" />
            </mxGeometry>
          </mxCell>
        </UserObject>
        <UserObject label="" lucidchartObjectId="y0DD58__u9Sb" id="rOXqwB_3zVNSecRi6AGg-9">
          <mxCell style="html=1;jettySize=18;whiteSpace=wrap;fontSize=13.3;fontColor=#333333;fontStyle=1;strokeColor=#5E5E5E;strokeWidth=1.5;rounded=1;arcSize=12;edgeStyle=orthogonalEdgeStyle;startArrow=none;;endArrow=block;endFill=1;;exitX=0.992;exitY=0.5;exitPerimeter=0;entryX=-0.009;entryY=0.5;entryPerimeter=0;" parent="1" source="rOXqwB_3zVNSecRi6AGg-7" target="rOXqwB_3zVNSecRi6AGg-11" edge="1">
            <mxGeometry width="100" height="100" relative="1" as="geometry">
              <Array as="points" />
            </mxGeometry>
          </mxCell>
        </UserObject>
        <mxCell id="rOXqwB_3zVNSecRi6AGg-10" value="No" style="text;html=1;resizable=0;labelBackgroundColor=#ffffff;align=center;verticalAlign=middle;fontStyle=1;fontColor=#333333;;fontSize=13.3;" parent="rOXqwB_3zVNSecRi6AGg-9" vertex="1">
          <mxGeometry relative="1" as="geometry" />
        </mxCell>
        <UserObject label="Follow the default instruction tree" lucidchartObjectId="I0DDC0zRGPlY" id="rOXqwB_3zVNSecRi6AGg-11">
          <mxCell style="html=1;overflow=block;blockSpacing=1;whiteSpace=wrap;;whiteSpace=wrap;fontSize=16.7;fontColor=#333333;spacing=9;strokeColor=#5e5e5e;strokeOpacity=100;rounded=1;absoluteArcSize=1;arcSize=9;strokeWidth=2.3;" parent="1" vertex="1">
            <mxGeometry x="985" y="261.5" width="120" height="91.5" as="geometry" />
          </mxCell>
        </UserObject>
        <mxCell id="BgTP_DOolfRmvNiGAhl6-4" style="edgeStyle=orthogonalEdgeStyle;orthogonalLoop=1;jettySize=auto;html=1;entryX=1;entryY=0.5;entryDx=0;entryDy=0;fontSize=13;endArrow=block;endFill=1;strokeColor=#5E5E5E;strokeWidth=1.5;" edge="1" parent="1" source="rOXqwB_3zVNSecRi6AGg-12" target="BgTP_DOolfRmvNiGAhl6-3">
          <mxGeometry relative="1" as="geometry" />
        </mxCell>
        <mxCell id="BgTP_DOolfRmvNiGAhl6-5" value="&lt;div&gt;Internal Affairs&lt;/div&gt;&lt;div&gt;&lt;br&gt;&lt;/div&gt;" style="text;html=1;resizable=0;labelBackgroundColor=#ffffff;align=center;verticalAlign=middle;fontStyle=1;fontColor=#333333;;fontSize=13.3;" vertex="1" connectable="0" parent="BgTP_DOolfRmvNiGAhl6-4">
          <mxGeometry x="-0.2042" y="1" relative="1" as="geometry">
            <mxPoint y="12" as="offset" />
          </mxGeometry>
        </mxCell>
        <UserObject label="Alert the proper department" lucidchartObjectId="80DDA15JNXUe" id="rOXqwB_3zVNSecRi6AGg-12">
          <mxCell style="html=1;overflow=block;blockSpacing=1;whiteSpace=wrap;;whiteSpace=wrap;fontSize=16.7;fontColor=#333333;spacing=9;strokeColor=#5e5e5e;strokeOpacity=100;rounded=1;absoluteArcSize=1;arcSize=9;strokeWidth=2.3;" parent="1" vertex="1">
            <mxGeometry x="465" y="281" width="135" height="53" as="geometry" />
          </mxCell>
        </UserObject>
        <UserObject label="" lucidchartObjectId="e1DDGYzkht0N" id="rOXqwB_3zVNSecRi6AGg-13">
          <mxCell style="html=1;jettySize=18;whiteSpace=wrap;fontSize=13.3;fontColor=#333333;fontStyle=1;strokeColor=#5E5E5E;strokeWidth=1.5;rounded=1;arcSize=12;edgeStyle=orthogonalEdgeStyle;startArrow=none;;endArrow=block;endFill=1;;exitX=0.008;exitY=0.5;exitPerimeter=0;entryX=1.008;entryY=0.5;entryPerimeter=0;" parent="1" source="rOXqwB_3zVNSecRi6AGg-7" target="rOXqwB_3zVNSecRi6AGg-12" edge="1">
            <mxGeometry width="100" height="100" relative="1" as="geometry">
              <Array as="points" />
            </mxGeometry>
          </mxCell>
        </UserObject>
        <mxCell id="rOXqwB_3zVNSecRi6AGg-14" value="Yes" style="text;html=1;resizable=0;labelBackgroundColor=#ffffff;align=center;verticalAlign=middle;fontStyle=1;fontColor=#333333;;fontSize=13.3;" parent="rOXqwB_3zVNSecRi6AGg-13" vertex="1">
          <mxGeometry relative="1" as="geometry" />
        </mxCell>
        <UserObject label="EA team/legal team take over ticket" lucidchartObjectId="02DDOMuM8Ttm" id="rOXqwB_3zVNSecRi6AGg-15">
          <mxCell style="html=1;overflow=block;blockSpacing=1;whiteSpace=wrap;;whiteSpace=wrap;fontSize=16.7;fontColor=#333333;spacing=9;strokeColor=#5e5e5e;strokeOpacity=100;rounded=1;absoluteArcSize=1;arcSize=9;strokeWidth=2.3;" parent="1" vertex="1">
            <mxGeometry x="473" y="401" width="120" height="98" as="geometry" />
          </mxCell>
        </UserObject>
        <UserObject label="" lucidchartObjectId="22DDndJ-itN~" id="rOXqwB_3zVNSecRi6AGg-16">
          <mxCell style="html=1;jettySize=18;whiteSpace=wrap;fontSize=13;strokeColor=#5E5E5E;strokeWidth=1.5;rounded=1;arcSize=12;edgeStyle=orthogonalEdgeStyle;startArrow=none;;endArrow=block;endFill=1;;exitX=0.5;exitY=1.021;exitPerimeter=0;entryX=0.5;entryY=-0.011;entryPerimeter=0;" parent="1" source="rOXqwB_3zVNSecRi6AGg-12" target="rOXqwB_3zVNSecRi6AGg-15" edge="1">
            <mxGeometry width="100" height="100" relative="1" as="geometry">
              <Array as="points" />
            </mxGeometry>
          </mxCell>
        </UserObject>
        <mxCell id="rOXqwB_3zVNSecRi6AGg-17" value="External Affairs" style="text;html=1;resizable=0;labelBackgroundColor=#ffffff;align=center;verticalAlign=middle;fontStyle=1;fontColor=#333333;;fontSize=13.3;" parent="rOXqwB_3zVNSecRi6AGg-16" vertex="1">
          <mxGeometry relative="1" as="geometry" />
        </mxCell>
        <UserObject label="Does it involve Plover directly or indirectly?" lucidchartObjectId="x3DDViFyel2m" id="rOXqwB_3zVNSecRi6AGg-18">
          <mxCell style="html=1;overflow=block;blockSpacing=1;whiteSpace=wrap;rhombus;whiteSpace=wrap;fontSize=16.7;fontColor=#333333;spacing=3.8;strokeColor=#5e5e5e;strokeOpacity=100;rounded=1;absoluteArcSize=1;arcSize=9;strokeWidth=2.3;" parent="1" vertex="1">
            <mxGeometry x="690" y="390" width="210" height="120" as="geometry" />
          </mxCell>
        </UserObject>
        <UserObject label="" lucidchartObjectId="N3DDJdNh9ivM" id="rOXqwB_3zVNSecRi6AGg-19">
          <mxCell style="html=1;jettySize=18;whiteSpace=wrap;fontSize=13;strokeColor=#5E5E5E;strokeWidth=1.5;rounded=1;arcSize=12;edgeStyle=orthogonalEdgeStyle;startArrow=none;;endArrow=block;endFill=1;;exitX=1.009;exitY=0.5;exitPerimeter=0;entryX=0.006;entryY=0.5;entryPerimeter=0;" parent="1" source="rOXqwB_3zVNSecRi6AGg-15" target="rOXqwB_3zVNSecRi6AGg-18" edge="1">
            <mxGeometry width="100" height="100" relative="1" as="geometry">
              <Array as="points" />
            </mxGeometry>
          </mxCell>
        </UserObject>
        <UserObject label="Close ticket" lucidchartObjectId="H4DDmJO7xdRc" id="rOXqwB_3zVNSecRi6AGg-20">
          <mxCell style="html=1;overflow=block;blockSpacing=1;whiteSpace=wrap;rounded=1;arcSize=50;whiteSpace=wrap;fontSize=16.7;fontColor=#333333;spacing=3.8;strokeColor=#5e5e5e;strokeOpacity=100;strokeWidth=2.3;" parent="1" vertex="1">
            <mxGeometry x="1260" y="420" width="120" height="60" as="geometry" />
          </mxCell>
        </UserObject>
        <UserObject label="" lucidchartObjectId="T4DDkySWn5ov" id="rOXqwB_3zVNSecRi6AGg-21">
          <mxCell style="html=1;jettySize=18;whiteSpace=wrap;fontSize=13;strokeColor=#5E5E5E;strokeWidth=1.5;rounded=1;arcSize=12;edgeStyle=orthogonalEdgeStyle;startArrow=none;;endArrow=block;endFill=1;;exitX=1.009;exitY=0.5;exitPerimeter=0;entryX=0.5;entryY=-0.019;entryPerimeter=0;" parent="1" source="rOXqwB_3zVNSecRi6AGg-11" target="rOXqwB_3zVNSecRi6AGg-20" edge="1">
            <mxGeometry width="100" height="100" relative="1" as="geometry">
              <Array as="points" />
            </mxGeometry>
          </mxCell>
        </UserObject>
        <UserObject label="" lucidchartObjectId="24DDNj4tF5-R" id="rOXqwB_3zVNSecRi6AGg-22">
          <mxCell style="html=1;jettySize=18;whiteSpace=wrap;fontSize=13.3;fontColor=#333333;fontStyle=1;strokeColor=#5E5E5E;strokeWidth=1.5;rounded=1;arcSize=12;edgeStyle=orthogonalEdgeStyle;startArrow=none;;endArrow=block;endFill=1;;exitX=0.994;exitY=0.5;exitPerimeter=0;entryX=-0.009;entryY=0.5;entryPerimeter=0;" parent="1" source="rOXqwB_3zVNSecRi6AGg-18" target="rOXqwB_3zVNSecRi6AGg-20" edge="1">
            <mxGeometry width="100" height="100" relative="1" as="geometry">
              <Array as="points" />
            </mxGeometry>
          </mxCell>
        </UserObject>
        <mxCell id="rOXqwB_3zVNSecRi6AGg-23" value="No" style="text;html=1;resizable=0;labelBackgroundColor=#ffffff;align=center;verticalAlign=middle;fontStyle=1;fontColor=#333333;;fontSize=13.3;" parent="rOXqwB_3zVNSecRi6AGg-22" vertex="1">
          <mxGeometry relative="1" as="geometry" />
        </mxCell>
        <UserObject label="Same user opens ticket for the same reason" lucidchartObjectId="c5DD-TAG2u.." id="rOXqwB_3zVNSecRi6AGg-24">
          <mxCell style="html=1;overflow=block;blockSpacing=1;whiteSpace=wrap;rhombus;whiteSpace=wrap;fontSize=16.7;fontColor=#333333;spacing=3.8;strokeColor=#5e5e5e;strokeOpacity=100;rounded=1;absoluteArcSize=1;arcSize=9;strokeWidth=2.3;" parent="1" vertex="1">
            <mxGeometry x="1205" y="530" width="230" height="155" as="geometry" />
          </mxCell>
        </UserObject>
        <UserObject label="" lucidchartObjectId="u5DD0T0PqOZf" id="rOXqwB_3zVNSecRi6AGg-25">
          <mxCell style="html=1;jettySize=18;whiteSpace=wrap;fontSize=13;strokeColor=#5E5E5E;strokeWidth=1.5;rounded=1;arcSize=12;edgeStyle=orthogonalEdgeStyle;startArrow=none;;endArrow=block;endFill=1;;exitX=0.5;exitY=1.019;exitPerimeter=0;entryX=0.5;entryY=0.004;entryPerimeter=0;" parent="1" source="rOXqwB_3zVNSecRi6AGg-20" target="rOXqwB_3zVNSecRi6AGg-24" edge="1">
            <mxGeometry width="100" height="100" relative="1" as="geometry">
              <Array as="points" />
            </mxGeometry>
          </mxCell>
        </UserObject>
        <UserObject label="" lucidchartObjectId="y5DD4BRuqcgU" id="rOXqwB_3zVNSecRi6AGg-26">
          <mxCell style="html=1;jettySize=18;whiteSpace=wrap;fontSize=13;strokeColor=#5E5E5E;strokeWidth=1.5;rounded=1;arcSize=12;edgeStyle=orthogonalEdgeStyle;startArrow=none;;endArrow=block;endFill=1;;exitX=0;exitY=0.5;exitDx=0;exitDy=0;" parent="1" source="rOXqwB_3zVNSecRi6AGg-24" edge="1">
            <mxGeometry width="100" height="100" relative="1" as="geometry">
              <Array as="points">
                <mxPoint x="1205" y="450" />
              </Array>
              <mxPoint x="1260" y="450" as="targetPoint" />
            </mxGeometry>
          </mxCell>
        </UserObject>
        <mxCell id="rOXqwB_3zVNSecRi6AGg-27" value="WARN" style="text;html=1;resizable=0;labelBackgroundColor=#ffffff;align=center;verticalAlign=middle;fontStyle=1;fontColor=#333333;;fontSize=13.3;" parent="rOXqwB_3zVNSecRi6AGg-26" vertex="1">
          <mxGeometry x="-0.2659005754225927" relative="1" as="geometry">
            <mxPoint y="-30" as="offset" />
          </mxGeometry>
        </mxCell>
        <UserObject label="" lucidchartObjectId="45DDsq~UsSS_" id="rOXqwB_3zVNSecRi6AGg-28">
          <mxCell style="html=1;jettySize=18;whiteSpace=wrap;fontSize=13.3;fontColor=#333333;fontStyle=1;strokeColor=#5E5E5E;strokeWidth=1.5;rounded=1;arcSize=12;edgeStyle=orthogonalEdgeStyle;startArrow=none;;endArrow=block;endFill=1;;exitX=0.5;exitY=0.999;exitPerimeter=0;entryX=0.5;entryY=0.004;entryPerimeter=0;" parent="1" source="rOXqwB_3zVNSecRi6AGg-18" target="rOXqwB_3zVNSecRi6AGg-30" edge="1">
            <mxGeometry width="100" height="100" relative="1" as="geometry">
              <Array as="points" />
            </mxGeometry>
          </mxCell>
        </UserObject>
        <mxCell id="rOXqwB_3zVNSecRi6AGg-29" value="Yes" style="text;html=1;resizable=0;labelBackgroundColor=#ffffff;align=center;verticalAlign=middle;fontStyle=1;fontColor=#333333;;fontSize=13.3;" parent="rOXqwB_3zVNSecRi6AGg-28" vertex="1">
          <mxGeometry relative="1" as="geometry" />
        </mxCell>
        <mxCell id="rOXqwB_3zVNSecRi6AGg-77" style="html=1;jettySize=18;whiteSpace=wrap;fontSize=13;strokeColor=#5E5E5E;strokeWidth=1.5;rounded=1;arcSize=12;edgeStyle=orthogonalEdgeStyle;startArrow=none;;endArrow=block;endFill=1;;exitX=0.5;exitY=-0.019;exitPerimeter=0;" parent="1" source="rOXqwB_3zVNSecRi6AGg-30" edge="1">
          <mxGeometry relative="1" as="geometry">
            <mxPoint x="320" y="600" as="targetPoint" />
            <Array as="points">
              <mxPoint x="690" y="653" />
              <mxPoint x="690" y="570" />
              <mxPoint x="320" y="570" />
            </Array>
          </mxGeometry>
        </mxCell>
        <mxCell id="HlGu5mULXF9mo92fJl-D-8" value="&lt;div&gt;Level 2&lt;/div&gt;" style="edgeLabel;html=1;align=center;verticalAlign=middle;resizable=0;points=[];fontSize=16.7;fontColor=#333333;" parent="rOXqwB_3zVNSecRi6AGg-77" vertex="1" connectable="0">
          <mxGeometry x="0.2234" y="3" relative="1" as="geometry">
            <mxPoint as="offset" />
          </mxGeometry>
        </mxCell>
        <mxCell id="HlGu5mULXF9mo92fJl-D-36" style="html=1;jettySize=18;whiteSpace=wrap;fontSize=13;strokeColor=#5E5E5E;strokeWidth=1.5;rounded=1;arcSize=12;edgeStyle=orthogonalEdgeStyle;startArrow=none;;endArrow=block;endFill=1;;exitX=0.5;exitY=-0.019;exitPerimeter=0;" parent="1" source="rOXqwB_3zVNSecRi6AGg-30" target="HlGu5mULXF9mo92fJl-D-31" edge="1">
          <mxGeometry relative="1" as="geometry">
            <Array as="points">
              <mxPoint x="758" y="598" />
              <mxPoint x="758" y="530" />
              <mxPoint x="198" y="530" />
            </Array>
          </mxGeometry>
        </mxCell>
        <mxCell id="HlGu5mULXF9mo92fJl-D-37" value="Level 3" style="edgeLabel;html=1;align=center;verticalAlign=middle;resizable=0;points=[];fontSize=16.7;fontColor=#333333;" parent="HlGu5mULXF9mo92fJl-D-36" vertex="1" connectable="0">
          <mxGeometry x="0.0469" y="1" relative="1" as="geometry">
            <mxPoint x="-1" as="offset" />
          </mxGeometry>
        </mxCell>
        <UserObject label="Determine severity" lucidchartObjectId="a6DDHZqHAU0q" id="rOXqwB_3zVNSecRi6AGg-30">
          <mxCell style="html=1;overflow=block;blockSpacing=1;whiteSpace=wrap;rhombus;whiteSpace=wrap;fontSize=16.7;fontColor=#333333;spacing=3.8;strokeColor=#5e5e5e;strokeOpacity=100;rounded=1;absoluteArcSize=1;arcSize=9;strokeWidth=2.3;" parent="1" vertex="1">
            <mxGeometry x="720" y="600" width="150" height="105" as="geometry" />
          </mxCell>
        </UserObject>
        <mxCell id="rOXqwB_3zVNSecRi6AGg-31" value="Level 1: 1 or 2 Plover products       leaked &#xa;Level 2: 3+ Plover products         leaked or important                customer affected&#xa;Level 3: Plover showroom leaked     (with products) or Plover      integrity compromised" style="group;spacingLeft=8;align=left;spacing=0;strokeColor=none;whiteSpace=wrap;fontSize=16.7;fontColor=#333333;strokeOpacity=100;fillOpacity=0;rounded=1;absoluteArcSize=1;arcSize=9;fillColor=#ffffff;strokeWidth=2.3;verticalAlign=middle;html=1;" parent="1" vertex="1">
          <mxGeometry x="920" y="471" width="270" height="168" as="geometry" />
        </mxCell>
        <mxCell id="rOXqwB_3zVNSecRi6AGg-32" value="" style="shape=partialRectangle;right=0;fillColor=none;whiteSpace=wrap;fontSize=16.7;fontColor=#333333;strokeColor=#5e5e5e;strokeWidth=2.3;" parent="rOXqwB_3zVNSecRi6AGg-31" vertex="1">
          <mxGeometry width="8" height="168" relative="1" as="geometry" />
        </mxCell>
        <UserObject label="" lucidchartObjectId="V8DDlnldFJzG" id="rOXqwB_3zVNSecRi6AGg-35">
          <mxCell style="html=1;jettySize=18;whiteSpace=wrap;fontSize=13;strokeColor=#5E5E5E;strokeWidth=1.5;rounded=1;arcSize=12;edgeStyle=orthogonalEdgeStyle;startArrow=none;;endArrow=block;endFill=1;;exitX=-0.004;exitY=0.5;exitPerimeter=0;entryX=0.712;entryY=0.199;entryPerimeter=0;" parent="1" source="rOXqwB_3zVNSecRi6AGg-31" target="rOXqwB_3zVNSecRi6AGg-30" edge="1">
            <mxGeometry width="100" height="100" relative="1" as="geometry">
              <Array as="points" />
            </mxGeometry>
          </mxCell>
        </UserObject>
        <UserObject label="" lucidchartObjectId="i9DDMGyEqkWq" id="rOXqwB_3zVNSecRi6AGg-36">
          <mxCell style="html=1;jettySize=18;whiteSpace=wrap;fontSize=13.3;fontColor=#333333;fontStyle=1;strokeColor=#5E5E5E;strokeWidth=1.5;rounded=1;arcSize=12;edgeStyle=orthogonalEdgeStyle;startArrow=none;;endArrow=block;endFill=1;;exitX=0.008;exitY=0.5;exitPerimeter=0;entryX=1.008;entryY=0.5;entryPerimeter=0;" parent="1" source="rOXqwB_3zVNSecRi6AGg-30" target="rOXqwB_3zVNSecRi6AGg-38" edge="1">
            <mxGeometry width="100" height="100" relative="1" as="geometry">
              <Array as="points" />
            </mxGeometry>
          </mxCell>
        </UserObject>
        <UserObject label="Contributor-level Legal team member takes over" lucidchartObjectId="k9DDnTDdrT-N" id="rOXqwB_3zVNSecRi6AGg-38">
          <mxCell style="html=1;overflow=block;blockSpacing=1;whiteSpace=wrap;;whiteSpace=wrap;fontSize=16.7;fontColor=#333333;spacing=9;strokeColor=#5E5E5E;rounded=1;absoluteArcSize=1;arcSize=9;strokeWidth=2.3;" parent="1" vertex="1">
            <mxGeometry x="450" y="604" width="135" height="98" as="geometry" />
          </mxCell>
        </UserObject>
        <UserObject label="Interview the parties involved" lucidchartObjectId="3jEDHWsNU-vQ" id="rOXqwB_3zVNSecRi6AGg-39">
          <mxCell style="html=1;overflow=block;blockSpacing=1;whiteSpace=wrap;;whiteSpace=wrap;fontSize=16.7;fontColor=#333333;spacing=9;strokeColor=#5e5e5e;strokeOpacity=100;rounded=1;absoluteArcSize=1;arcSize=9;strokeWidth=2.3;" parent="1" vertex="1">
            <mxGeometry x="458" y="749" width="120" height="78" as="geometry" />
          </mxCell>
        </UserObject>
        <UserObject label="" lucidchartObjectId="7jEDrIoH_VId" id="rOXqwB_3zVNSecRi6AGg-40">
          <mxCell style="html=1;jettySize=18;whiteSpace=wrap;fontSize=13;strokeColor=#5E5E5E;strokeWidth=1.5;rounded=1;arcSize=12;edgeStyle=orthogonalEdgeStyle;startArrow=none;;endArrow=block;endFill=1;;exitX=0.5;exitY=1.011;exitPerimeter=0;entryX=0.5;entryY=-0.014;entryPerimeter=0;" parent="1" source="rOXqwB_3zVNSecRi6AGg-38" target="rOXqwB_3zVNSecRi6AGg-39" edge="1">
            <mxGeometry width="100" height="100" relative="1" as="geometry">
              <Array as="points" />
            </mxGeometry>
          </mxCell>
        </UserObject>
        <UserObject label="Make a Trello card with all the info." lucidchartObjectId="lkEDaWoSYWa-" id="rOXqwB_3zVNSecRi6AGg-41">
          <mxCell style="html=1;overflow=block;blockSpacing=1;whiteSpace=wrap;;whiteSpace=wrap;fontSize=16.7;fontColor=#333333;spacing=9;strokeColor=#5e5e5e;strokeOpacity=100;rounded=1;absoluteArcSize=1;arcSize=9;strokeWidth=2.3;" parent="1" vertex="1">
            <mxGeometry x="735" y="743" width="120" height="90" as="geometry" />
          </mxCell>
        </UserObject>
        <UserObject label="" lucidchartObjectId="TkEDcE1.3REi" id="rOXqwB_3zVNSecRi6AGg-42">
          <mxCell style="html=1;jettySize=18;whiteSpace=wrap;fontSize=13;strokeColor=#5E5E5E;strokeWidth=1.5;rounded=1;arcSize=12;edgeStyle=orthogonalEdgeStyle;startArrow=none;;endArrow=block;endFill=1;;exitX=1.009;exitY=0.5;exitPerimeter=0;entryX=-0.009;entryY=0.5;entryPerimeter=0;" parent="1" source="rOXqwB_3zVNSecRi6AGg-39" target="rOXqwB_3zVNSecRi6AGg-41" edge="1">
            <mxGeometry width="100" height="100" relative="1" as="geometry">
              <Array as="points" />
            </mxGeometry>
          </mxCell>
        </UserObject>
        <UserObject label="Consider options, meet with other Legal team members." lucidchartObjectId="1kEDgN8tKts8" id="rOXqwB_3zVNSecRi6AGg-43">
          <mxCell style="html=1;overflow=block;blockSpacing=1;whiteSpace=wrap;;whiteSpace=wrap;fontSize=16.7;fontColor=#333333;spacing=9;strokeColor=#5e5e5e;strokeOpacity=100;rounded=1;absoluteArcSize=1;arcSize=9;strokeWidth=2.3;" parent="1" vertex="1">
            <mxGeometry x="1013" y="729" width="158" height="118" as="geometry" />
          </mxCell>
        </UserObject>
        <UserObject label="" lucidchartObjectId="MlEDpCHJ5cM6" id="rOXqwB_3zVNSecRi6AGg-44">
          <mxCell style="html=1;jettySize=18;whiteSpace=wrap;fontSize=13;strokeColor=#5E5E5E;strokeWidth=1.5;rounded=1;arcSize=12;edgeStyle=orthogonalEdgeStyle;startArrow=none;;endArrow=block;endFill=1;;exitX=1.009;exitY=0.5;exitPerimeter=0;entryX=-0.007;entryY=0.5;entryPerimeter=0;" parent="1" source="rOXqwB_3zVNSecRi6AGg-41" target="rOXqwB_3zVNSecRi6AGg-43" edge="1">
            <mxGeometry width="100" height="100" relative="1" as="geometry">
              <Array as="points" />
            </mxGeometry>
          </mxCell>
        </UserObject>
        <UserObject label="Inform all the parties involved" lucidchartObjectId="VlEDCqgYlr7M" id="rOXqwB_3zVNSecRi6AGg-45">
          <mxCell style="html=1;overflow=block;blockSpacing=1;whiteSpace=wrap;;whiteSpace=wrap;fontSize=16.7;fontColor=#333333;spacing=9;strokeColor=#5e5e5e;strokeOpacity=100;rounded=1;absoluteArcSize=1;arcSize=9;strokeWidth=2.3;" parent="1" vertex="1">
            <mxGeometry x="1260" y="743" width="120" height="90" as="geometry" />
          </mxCell>
        </UserObject>
        <UserObject label="" lucidchartObjectId="7lEDtqv.kI_V" id="rOXqwB_3zVNSecRi6AGg-46">
          <mxCell style="html=1;jettySize=18;whiteSpace=wrap;fontSize=13;strokeColor=#5E5E5E;strokeWidth=1.5;rounded=1;arcSize=12;edgeStyle=orthogonalEdgeStyle;startArrow=none;;endArrow=block;endFill=1;;exitX=1.007;exitY=0.5;exitPerimeter=0;entryX=-0.009;entryY=0.5;entryPerimeter=0;" parent="1" source="rOXqwB_3zVNSecRi6AGg-43" target="rOXqwB_3zVNSecRi6AGg-45" edge="1">
            <mxGeometry width="100" height="100" relative="1" as="geometry">
              <Array as="points" />
            </mxGeometry>
          </mxCell>
        </UserObject>
        <UserObject label="Take action" lucidchartObjectId="cmEDYQ.MPToP" id="rOXqwB_3zVNSecRi6AGg-47">
          <mxCell style="html=1;overflow=block;blockSpacing=1;whiteSpace=wrap;;whiteSpace=wrap;fontSize=16.7;fontColor=#333333;spacing=9;strokeColor=#5e5e5e;strokeOpacity=100;rounded=1;absoluteArcSize=1;arcSize=9;strokeWidth=2.3;" parent="1" vertex="1">
            <mxGeometry x="1485" y="743" width="120" height="90" as="geometry" />
          </mxCell>
        </UserObject>
        <UserObject label="&lt;font style=&quot;font-size: 17px&quot;&gt;Does action involve staff?&lt;/font&gt;" lucidchartObjectId="qmED6a~udlw6" id="rOXqwB_3zVNSecRi6AGg-48">
          <mxCell style="html=1;overflow=block;blockSpacing=1;whiteSpace=wrap;rhombus;whiteSpace=wrap;fontSize=16.7;fontColor=#333333;spacing=3.8;strokeColor=#5e5e5e;strokeOpacity=100;rounded=1;absoluteArcSize=1;arcSize=9;strokeWidth=2.3;" parent="1" vertex="1">
            <mxGeometry x="1905" y="728.5" width="215" height="119" as="geometry" />
          </mxCell>
        </UserObject>
        <UserObject label="" lucidchartObjectId="KmEDZq6dgixC" id="rOXqwB_3zVNSecRi6AGg-49">
          <mxCell style="html=1;jettySize=18;whiteSpace=wrap;fontSize=13;strokeColor=#5E5E5E;strokeWidth=1.5;rounded=1;arcSize=12;edgeStyle=orthogonalEdgeStyle;startArrow=none;;endArrow=block;endFill=1;;exitX=1.009;exitY=0.5;exitPerimeter=0;entryX=-0.009;entryY=0.5;entryPerimeter=0;" parent="1" source="rOXqwB_3zVNSecRi6AGg-45" target="rOXqwB_3zVNSecRi6AGg-47" edge="1">
            <mxGeometry width="100" height="100" relative="1" as="geometry">
              <Array as="points" />
            </mxGeometry>
          </mxCell>
        </UserObject>
        <UserObject label="AND" lucidchartObjectId="9mEDw0mcLWSL" id="rOXqwB_3zVNSecRi6AGg-50">
          <mxCell style="ellipse;whiteSpace=wrap;html=1;aspect=fixed;fontFamily=Helvetica;fontSize=13;fontColor=#000000;align=center;strokeColor=#5e5e5e;strokeWidth=2.3;fillColor=#ffffff;" parent="1" vertex="1">
            <mxGeometry x="1710" y="758" width="60" height="60" as="geometry" />
          </mxCell>
        </UserObject>
        <UserObject label="" lucidchartObjectId="tnEDy3R5PmWz" id="rOXqwB_3zVNSecRi6AGg-51">
          <mxCell style="html=1;jettySize=18;whiteSpace=wrap;fontSize=13;strokeColor=#5E5E5E;strokeWidth=1.5;rounded=1;arcSize=12;edgeStyle=orthogonalEdgeStyle;startArrow=none;;endArrow=block;endFill=1;;exitX=1.009;exitY=0.5;exitPerimeter=0;entryX=-0.019;entryY=0.5;entryPerimeter=0;" parent="1" source="rOXqwB_3zVNSecRi6AGg-47" target="rOXqwB_3zVNSecRi6AGg-50" edge="1">
            <mxGeometry width="100" height="100" relative="1" as="geometry">
              <Array as="points" />
            </mxGeometry>
          </mxCell>
        </UserObject>
        <UserObject label="" lucidchartObjectId="BnED-8la0jvS" id="rOXqwB_3zVNSecRi6AGg-52">
          <mxCell style="html=1;jettySize=18;whiteSpace=wrap;fontSize=13;strokeColor=#5E5E5E;strokeWidth=1.5;rounded=1;arcSize=12;edgeStyle=orthogonalEdgeStyle;startArrow=none;;endArrow=block;endFill=1;;exitX=0.5;exitY=-0.019;exitPerimeter=0;entryX=1.009;entryY=0.5;entryPerimeter=0;" parent="1" source="rOXqwB_3zVNSecRi6AGg-50" target="rOXqwB_3zVNSecRi6AGg-20" edge="1">
            <mxGeometry width="100" height="100" relative="1" as="geometry">
              <Array as="points">
                <mxPoint x="1740" y="720" />
                <mxPoint x="1450" y="720" />
                <mxPoint x="1450" y="450" />
              </Array>
            </mxGeometry>
          </mxCell>
        </UserObject>
        <mxCell id="BgTP_DOolfRmvNiGAhl6-1" value="Supervisor only" style="edgeLabel;html=1;align=center;verticalAlign=middle;resizable=0;points=[];" vertex="1" connectable="0" parent="rOXqwB_3zVNSecRi6AGg-52">
          <mxGeometry x="-0.6099" y="-2" relative="1" as="geometry">
            <mxPoint as="offset" />
          </mxGeometry>
        </mxCell>
        <UserObject label="" lucidchartObjectId="GnED~heq3.G6" id="rOXqwB_3zVNSecRi6AGg-53">
          <mxCell style="html=1;jettySize=18;whiteSpace=wrap;fontSize=13;strokeColor=#5E5E5E;strokeWidth=1.5;rounded=1;arcSize=12;edgeStyle=orthogonalEdgeStyle;startArrow=none;;endArrow=block;endFill=1;;exitX=1.019;exitY=0.5;exitPerimeter=0;entryX=0.007;entryY=0.5;entryPerimeter=0;" parent="1" source="rOXqwB_3zVNSecRi6AGg-50" target="rOXqwB_3zVNSecRi6AGg-48" edge="1">
            <mxGeometry width="100" height="100" relative="1" as="geometry">
              <Array as="points" />
            </mxGeometry>
          </mxCell>
        </UserObject>
        <mxCell id="BgTP_DOolfRmvNiGAhl6-2" value="Supervisor only" style="edgeLabel;html=1;align=center;verticalAlign=middle;resizable=0;points=[];" vertex="1" connectable="0" parent="rOXqwB_3zVNSecRi6AGg-53">
          <mxGeometry x="-0.2338" relative="1" as="geometry">
            <mxPoint as="offset" />
          </mxGeometry>
        </mxCell>
        <UserObject label="" lucidchartObjectId="1nEDbzo6jjFs" id="rOXqwB_3zVNSecRi6AGg-54">
          <mxCell style="html=1;jettySize=18;whiteSpace=wrap;fontSize=13.3;fontColor=#333333;fontStyle=1;strokeColor=#5E5E5E;strokeWidth=1.5;rounded=1;arcSize=12;edgeStyle=orthogonalEdgeStyle;startArrow=none;;endArrow=block;endFill=1;;exitX=0.5;exitY=0.004;exitPerimeter=0;entryX=0.5;entryY=1;entryDx=0;entryDy=0;" parent="1" source="rOXqwB_3zVNSecRi6AGg-48" target="rOXqwB_3zVNSecRi6AGg-56" edge="1">
            <mxGeometry width="100" height="100" relative="1" as="geometry">
              <Array as="points" />
              <mxPoint x="2013" y="630" as="targetPoint" />
            </mxGeometry>
          </mxCell>
        </UserObject>
        <mxCell id="rOXqwB_3zVNSecRi6AGg-55" value="Yes" style="text;html=1;resizable=0;labelBackgroundColor=#ffffff;align=center;verticalAlign=middle;fontStyle=1;fontColor=#333333;;fontSize=13.3;" parent="rOXqwB_3zVNSecRi6AGg-54" vertex="1">
          <mxGeometry relative="1" as="geometry" />
        </mxCell>
        <mxCell id="HlGu5mULXF9mo92fJl-D-9" style="html=1;jettySize=18;whiteSpace=wrap;fontSize=13;strokeColor=#5E5E5E;strokeWidth=1.5;rounded=1;arcSize=12;edgeStyle=orthogonalEdgeStyle;startArrow=none;;endArrow=block;endFill=1;;exitX=0.5;exitY=-0.019;exitPerimeter=0;" parent="1" source="rOXqwB_3zVNSecRi6AGg-56" edge="1">
          <mxGeometry relative="1" as="geometry">
            <mxPoint x="2210" y="555" as="targetPoint" />
          </mxGeometry>
        </mxCell>
        <mxCell id="HlGu5mULXF9mo92fJl-D-10" value="CHRO only" style="edgeLabel;html=1;align=center;verticalAlign=middle;resizable=0;points=[];" parent="HlGu5mULXF9mo92fJl-D-9" vertex="1" connectable="0">
          <mxGeometry x="-0.1728" relative="1" as="geometry">
            <mxPoint as="offset" />
          </mxGeometry>
        </mxCell>
        <UserObject label="Contact HR" lucidchartObjectId="3nED_sa1dsWR" id="rOXqwB_3zVNSecRi6AGg-56">
          <mxCell style="html=1;overflow=block;blockSpacing=1;whiteSpace=wrap;;whiteSpace=wrap;fontSize=16.7;fontColor=#333333;spacing=9;strokeColor=#5E5E5E;rounded=1;absoluteArcSize=1;arcSize=9;strokeWidth=2.3;" parent="1" vertex="1">
            <mxGeometry x="1952.5" y="525" width="120" height="60" as="geometry" />
          </mxCell>
        </UserObject>
        <UserObject label="" lucidchartObjectId="foEDuIBkdtHx" id="rOXqwB_3zVNSecRi6AGg-57">
          <mxCell style="html=1;jettySize=18;whiteSpace=wrap;fontSize=13.3;fontColor=#333333;fontStyle=1;strokeColor=#5E5E5E;strokeWidth=1.5;rounded=1;arcSize=12;edgeStyle=orthogonalEdgeStyle;startArrow=none;;endArrow=block;endFill=1;;exitX=0.305;exitY=0.183;exitPerimeter=0;entryX=0.5;entryY=1.013;entryPerimeter=0;" parent="1" source="rOXqwB_3zVNSecRi6AGg-48" target="rOXqwB_3zVNSecRi6AGg-59" edge="1">
            <mxGeometry width="100" height="100" relative="1" as="geometry">
              <Array as="points" />
            </mxGeometry>
          </mxCell>
        </UserObject>
        <mxCell id="rOXqwB_3zVNSecRi6AGg-58" value="No" style="text;html=1;resizable=0;labelBackgroundColor=#ffffff;align=center;verticalAlign=middle;fontStyle=1;fontColor=#333333;;fontSize=13.3;" parent="rOXqwB_3zVNSecRi6AGg-57" vertex="1">
          <mxGeometry relative="1" as="geometry" />
        </mxCell>
        <UserObject label="Write a report on the process" lucidchartObjectId="goEDJb9uMNd_" id="rOXqwB_3zVNSecRi6AGg-59">
          <mxCell style="html=1;overflow=block;blockSpacing=1;whiteSpace=wrap;;whiteSpace=wrap;fontSize=16.7;fontColor=#333333;spacing=9;strokeColor=#5E5E5E;rounded=1;absoluteArcSize=1;arcSize=9;strokeWidth=2.3;" parent="1" vertex="1">
            <mxGeometry x="1808" y="401" width="120" height="90" as="geometry" />
          </mxCell>
        </UserObject>
        <UserObject label="" lucidchartObjectId="CoEDYCYAk3~1" id="rOXqwB_3zVNSecRi6AGg-60">
          <mxCell style="html=1;jettySize=18;whiteSpace=wrap;fontSize=13;strokeColor=#5E5E5E;strokeWidth=1.5;rounded=1;arcSize=12;edgeStyle=orthogonalEdgeStyle;startArrow=none;;endArrow=block;endFill=1;;exitX=0.5;exitY=-0.019;exitPerimeter=0;" parent="1" source="rOXqwB_3zVNSecRi6AGg-56" edge="1">
            <mxGeometry width="100" height="100" relative="1" as="geometry">
              <Array as="points">
                <mxPoint x="2013" y="450" />
              </Array>
              <mxPoint x="1930" y="450" as="targetPoint" />
            </mxGeometry>
          </mxCell>
        </UserObject>
        <UserObject label="" lucidchartObjectId="IoEDmHj5jith" id="rOXqwB_3zVNSecRi6AGg-61">
          <mxCell style="html=1;jettySize=18;whiteSpace=wrap;fontSize=13;strokeColor=#5E5E5E;strokeWidth=1.5;rounded=1;arcSize=12;edgeStyle=orthogonalEdgeStyle;startArrow=none;;endArrow=block;endFill=1;;exitX=-0.009;exitY=0.5;exitPerimeter=0;entryX=1.009;entryY=0.5;entryPerimeter=0;" parent="1" source="rOXqwB_3zVNSecRi6AGg-59" target="rOXqwB_3zVNSecRi6AGg-62" edge="1">
            <mxGeometry width="100" height="100" relative="1" as="geometry">
              <Array as="points">
                <mxPoint x="1720" y="446" />
                <mxPoint x="1720" y="365" />
              </Array>
            </mxGeometry>
          </mxCell>
        </UserObject>
        <UserObject label="Submit to GM (Legal) or EM (Legal) for distribution (if required)" lucidchartObjectId="JoEDZuZ4PdnZ" id="rOXqwB_3zVNSecRi6AGg-62">
          <mxCell style="html=1;overflow=block;blockSpacing=1;whiteSpace=wrap;;whiteSpace=wrap;fontSize=16.7;fontColor=#333333;spacing=9;strokeColor=#5E5E5E;rounded=1;absoluteArcSize=1;arcSize=9;strokeWidth=2.3;" parent="1" vertex="1">
            <mxGeometry x="1545" y="300" width="120" height="130" as="geometry" />
          </mxCell>
        </UserObject>
        <UserObject label="&lt;font color=&quot;#F7F7F7&quot;&gt;End of the case&lt;/font&gt;" lucidchartObjectId="upEDrIJdkb8G" id="rOXqwB_3zVNSecRi6AGg-63">
          <mxCell style="html=1;overflow=block;blockSpacing=1;whiteSpace=wrap;rounded=1;arcSize=50;whiteSpace=wrap;fontSize=16.7;fontColor=#333333;spacing=3.8;strokeColor=#5e5e5e;strokeOpacity=100;strokeWidth=2.3;fillColor=#030303;" parent="1" vertex="1">
            <mxGeometry x="1545" y="510" width="120" height="60" as="geometry" />
          </mxCell>
        </UserObject>
        <UserObject label="" lucidchartObjectId="MpEDAt1w_uCB" id="rOXqwB_3zVNSecRi6AGg-64">
          <mxCell style="html=1;jettySize=18;whiteSpace=wrap;fontSize=13;strokeColor=#5E5E5E;strokeWidth=1.5;rounded=1;arcSize=12;edgeStyle=orthogonalEdgeStyle;startArrow=none;;endArrow=block;endFill=1;;exitX=0.5;exitY=1.013;exitPerimeter=0;entryX=0.5;entryY=-0.019;entryPerimeter=0;" parent="1" source="rOXqwB_3zVNSecRi6AGg-62" target="rOXqwB_3zVNSecRi6AGg-63" edge="1">
            <mxGeometry width="100" height="100" relative="1" as="geometry">
              <Array as="points">
                <mxPoint x="1605" y="470" />
                <mxPoint x="1605" y="470" />
              </Array>
            </mxGeometry>
          </mxCell>
        </UserObject>
        <UserObject label="Interview the parties involved" lucidchartObjectId="hqEDrXdxle57" id="rOXqwB_3zVNSecRi6AGg-65">
          <mxCell style="html=1;overflow=block;blockSpacing=1;whiteSpace=wrap;;whiteSpace=wrap;fontSize=16.7;fontColor=#333333;spacing=9;strokeColor=#5e5e5e;strokeOpacity=100;rounded=1;absoluteArcSize=1;arcSize=9;strokeWidth=2.3;" parent="1" vertex="1">
            <mxGeometry x="458" y="890" width="120" height="78" as="geometry" />
          </mxCell>
        </UserObject>
        <UserObject label="Make a Trello card with all the info." lucidchartObjectId="hqEDs6yVUbT5" id="rOXqwB_3zVNSecRi6AGg-66">
          <mxCell style="html=1;overflow=block;blockSpacing=1;whiteSpace=wrap;;whiteSpace=wrap;fontSize=16.7;fontColor=#333333;spacing=9;strokeColor=#5e5e5e;strokeOpacity=100;rounded=1;absoluteArcSize=1;arcSize=9;strokeWidth=2.3;" parent="1" vertex="1">
            <mxGeometry x="735" y="884" width="120" height="90" as="geometry" />
          </mxCell>
        </UserObject>
        <UserObject label="" lucidchartObjectId="hqEDZFYXyNE-" id="rOXqwB_3zVNSecRi6AGg-67">
          <mxCell style="html=1;jettySize=18;whiteSpace=wrap;fontSize=13;strokeColor=#5E5E5E;strokeWidth=1.5;rounded=1;arcSize=12;edgeStyle=orthogonalEdgeStyle;startArrow=none;;endArrow=block;endFill=1;;exitX=1.009;exitY=0.5;exitPerimeter=0;entryX=-0.009;entryY=0.5;entryPerimeter=0;" parent="1" source="rOXqwB_3zVNSecRi6AGg-65" target="rOXqwB_3zVNSecRi6AGg-66" edge="1">
            <mxGeometry width="100" height="100" relative="1" as="geometry">
              <Array as="points" />
            </mxGeometry>
          </mxCell>
        </UserObject>
        <mxCell id="HlGu5mULXF9mo92fJl-D-3" style="edgeStyle=orthogonalEdgeStyle;rounded=0;orthogonalLoop=1;jettySize=auto;html=1;" parent="1" source="rOXqwB_3zVNSecRi6AGg-68" target="HlGu5mULXF9mo92fJl-D-2" edge="1">
          <mxGeometry relative="1" as="geometry" />
        </mxCell>
        <UserObject label="Consider options, meet with other Legal team members and GM/EM (Legal)." lucidchartObjectId="hqEDzJt~u0qP" id="rOXqwB_3zVNSecRi6AGg-68">
          <mxCell style="html=1;overflow=block;blockSpacing=1;whiteSpace=wrap;;whiteSpace=wrap;fontSize=16.7;fontColor=#333333;spacing=9;strokeColor=#5e5e5e;strokeOpacity=100;rounded=1;absoluteArcSize=1;arcSize=9;strokeWidth=2.3;" parent="1" vertex="1">
            <mxGeometry x="1013" y="870" width="158" height="118" as="geometry" />
          </mxCell>
        </UserObject>
        <UserObject label="" lucidchartObjectId="hqEDnRyQi4Ez" id="rOXqwB_3zVNSecRi6AGg-69">
          <mxCell style="html=1;jettySize=18;whiteSpace=wrap;fontSize=13;strokeColor=#5E5E5E;strokeWidth=1.5;rounded=1;arcSize=12;edgeStyle=orthogonalEdgeStyle;startArrow=none;;endArrow=block;endFill=1;;exitX=1.009;exitY=0.5;exitPerimeter=0;entryX=-0.007;entryY=0.5;entryPerimeter=0;" parent="1" source="rOXqwB_3zVNSecRi6AGg-66" target="rOXqwB_3zVNSecRi6AGg-68" edge="1">
            <mxGeometry width="100" height="100" relative="1" as="geometry">
              <Array as="points" />
            </mxGeometry>
          </mxCell>
        </UserObject>
        <mxCell id="HlGu5mULXF9mo92fJl-D-6" style="edgeStyle=orthogonalEdgeStyle;rounded=0;orthogonalLoop=1;jettySize=auto;html=1;" parent="1" source="rOXqwB_3zVNSecRi6AGg-70" target="HlGu5mULXF9mo92fJl-D-5" edge="1">
          <mxGeometry relative="1" as="geometry" />
        </mxCell>
        <UserObject label="Inform all the parties involved" lucidchartObjectId="hqEDKGiuaKN8" id="rOXqwB_3zVNSecRi6AGg-70">
          <mxCell style="html=1;overflow=block;blockSpacing=1;whiteSpace=wrap;;whiteSpace=wrap;fontSize=16.7;fontColor=#333333;spacing=9;strokeColor=#5e5e5e;strokeOpacity=100;rounded=1;absoluteArcSize=1;arcSize=9;strokeWidth=2.3;" parent="1" vertex="1">
            <mxGeometry x="1485" y="884" width="120" height="90" as="geometry" />
          </mxCell>
        </UserObject>
        <mxCell id="HlGu5mULXF9mo92fJl-D-1" style="html=1;jettySize=18;whiteSpace=wrap;fontSize=13;strokeColor=#5E5E5E;strokeWidth=1.5;rounded=1;arcSize=12;edgeStyle=orthogonalEdgeStyle;startArrow=none;;endArrow=block;endFill=1;;exitX=0.5;exitY=-0.019;exitPerimeter=0;" parent="1" source="rOXqwB_3zVNSecRi6AGg-74" target="rOXqwB_3zVNSecRi6AGg-65" edge="1">
          <mxGeometry relative="1" as="geometry">
            <mxPoint x="322.5" y="897.4285714285714" as="targetPoint" />
            <Array as="points">
              <mxPoint x="322" y="929" />
            </Array>
          </mxGeometry>
        </mxCell>
        <UserObject label="Contributor-level Legal team member takes over with GM/EM supervision" lucidchartObjectId="crEDSrbjGPza" id="rOXqwB_3zVNSecRi6AGg-74">
          <mxCell style="html=1;overflow=block;blockSpacing=1;whiteSpace=wrap;;whiteSpace=wrap;fontSize=16.7;fontColor=#333333;spacing=9;strokeColor=#5E5E5E;rounded=1;absoluteArcSize=1;arcSize=9;strokeWidth=2.3;" parent="1" vertex="1">
            <mxGeometry x="255" y="604" width="135" height="139" as="geometry" />
          </mxCell>
        </UserObject>
        <mxCell id="HlGu5mULXF9mo92fJl-D-4" style="edgeStyle=orthogonalEdgeStyle;rounded=0;orthogonalLoop=1;jettySize=auto;html=1;" parent="1" source="HlGu5mULXF9mo92fJl-D-2" target="rOXqwB_3zVNSecRi6AGg-70" edge="1">
          <mxGeometry relative="1" as="geometry" />
        </mxCell>
        <UserObject label="Vote on the outcome with Legal + GM/EM (Legal)" lucidchartObjectId="VlEDCqgYlr7M" id="HlGu5mULXF9mo92fJl-D-2">
          <mxCell style="html=1;overflow=block;blockSpacing=1;whiteSpace=wrap;;whiteSpace=wrap;fontSize=16.7;fontColor=#333333;spacing=9;strokeColor=#5e5e5e;strokeOpacity=100;rounded=1;absoluteArcSize=1;arcSize=9;strokeWidth=2.3;" parent="1" vertex="1">
            <mxGeometry x="1260" y="884" width="140" height="90" as="geometry" />
          </mxCell>
        </UserObject>
        <mxCell id="HlGu5mULXF9mo92fJl-D-7" style="edgeStyle=orthogonalEdgeStyle;rounded=0;orthogonalLoop=1;jettySize=auto;html=1;" parent="1" source="HlGu5mULXF9mo92fJl-D-5" target="rOXqwB_3zVNSecRi6AGg-50" edge="1">
          <mxGeometry relative="1" as="geometry" />
        </mxCell>
        <UserObject label="Take action" lucidchartObjectId="cmEDYQ.MPToP" id="HlGu5mULXF9mo92fJl-D-5">
          <mxCell style="html=1;overflow=block;blockSpacing=1;whiteSpace=wrap;;whiteSpace=wrap;fontSize=16.7;fontColor=#333333;spacing=9;strokeColor=#5e5e5e;strokeOpacity=100;rounded=1;absoluteArcSize=1;arcSize=9;strokeWidth=2.3;" parent="1" vertex="1">
            <mxGeometry x="1680" y="884" width="120" height="90" as="geometry" />
          </mxCell>
        </UserObject>
        <mxCell id="HlGu5mULXF9mo92fJl-D-14" style="html=1;jettySize=18;whiteSpace=wrap;fontSize=13;strokeColor=#5E5E5E;strokeWidth=1.5;rounded=1;arcSize=12;edgeStyle=orthogonalEdgeStyle;startArrow=none;;endArrow=block;endFill=1;;exitX=0.5;exitY=-0.019;exitPerimeter=0;" parent="1" source="HlGu5mULXF9mo92fJl-D-12" target="HlGu5mULXF9mo92fJl-D-13" edge="1">
          <mxGeometry relative="1" as="geometry" />
        </mxCell>
        <mxCell id="HlGu5mULXF9mo92fJl-D-12" value="Check the case" style="rounded=1;whiteSpace=wrap;html=1;fontSize=16.7;fontColor=#333333;strokeColor=#5E5E5E;strokeWidth=2.3;" parent="1" vertex="1">
          <mxGeometry x="2210" y="525" width="120" height="60" as="geometry" />
        </mxCell>
        <mxCell id="HlGu5mULXF9mo92fJl-D-15" style="html=1;jettySize=18;whiteSpace=wrap;fontSize=13;strokeColor=#5E5E5E;strokeWidth=1.5;rounded=1;arcSize=12;edgeStyle=orthogonalEdgeStyle;startArrow=none;;endArrow=block;endFill=1;;exitX=0.5;exitY=-0.019;exitPerimeter=0;" parent="1" source="HlGu5mULXF9mo92fJl-D-13" edge="1">
          <mxGeometry relative="1" as="geometry">
            <mxPoint x="2270" y="930" as="targetPoint" />
          </mxGeometry>
        </mxCell>
        <mxCell id="HlGu5mULXF9mo92fJl-D-16" value="Yes" style="edgeLabel;html=1;align=center;verticalAlign=middle;resizable=0;points=[];fontSize=16.7;fontColor=#333333;" parent="HlGu5mULXF9mo92fJl-D-15" vertex="1" connectable="0">
          <mxGeometry x="-0.2093" y="-1" relative="1" as="geometry">
            <mxPoint x="1" y="16" as="offset" />
          </mxGeometry>
        </mxCell>
        <mxCell id="HlGu5mULXF9mo92fJl-D-17" style="edgeStyle=orthogonalEdgeStyle;rounded=0;orthogonalLoop=1;jettySize=auto;html=1;fontSize=16.7;fontColor=#333333;" parent="1" source="HlGu5mULXF9mo92fJl-D-13" edge="1">
          <mxGeometry relative="1" as="geometry">
            <mxPoint x="1850" y="699.5" as="targetPoint" />
          </mxGeometry>
        </mxCell>
        <mxCell id="HlGu5mULXF9mo92fJl-D-18" value="No" style="edgeLabel;html=1;align=center;verticalAlign=middle;resizable=0;points=[];fontSize=16.7;fontColor=#333333;" parent="HlGu5mULXF9mo92fJl-D-17" vertex="1" connectable="0">
          <mxGeometry x="-0.5939" y="1" relative="1" as="geometry">
            <mxPoint as="offset" />
          </mxGeometry>
        </mxCell>
        <mxCell id="HlGu5mULXF9mo92fJl-D-13" value="Does the SP policy apply?" style="rhombus;whiteSpace=wrap;html=1;rounded=1;fontSize=16.7;fontColor=#333333;strokeColor=#5E5E5E;strokeWidth=2.3;" parent="1" vertex="1">
          <mxGeometry x="2180" y="641" width="180" height="117" as="geometry" />
        </mxCell>
        <mxCell id="HlGu5mULXF9mo92fJl-D-21" style="html=1;jettySize=18;whiteSpace=wrap;fontSize=13;strokeColor=#5E5E5E;strokeWidth=1.5;rounded=1;arcSize=12;edgeStyle=orthogonalEdgeStyle;startArrow=none;;endArrow=block;endFill=1;;exitX=0.5;exitY=-0.019;exitPerimeter=0;" parent="1" source="HlGu5mULXF9mo92fJl-D-20" target="rOXqwB_3zVNSecRi6AGg-63" edge="1">
          <mxGeometry relative="1" as="geometry">
            <Array as="points">
              <mxPoint x="1805" y="540" />
            </Array>
          </mxGeometry>
        </mxCell>
        <mxCell id="HlGu5mULXF9mo92fJl-D-20" value="Do it" style="rounded=1;whiteSpace=wrap;html=1;fontSize=16.7;fontColor=#333333;strokeColor=#5E5E5E;strokeWidth=2.3;" parent="1" vertex="1">
          <mxGeometry x="1760" y="674.5" width="90" height="50" as="geometry" />
        </mxCell>
        <UserObject label="Interview the parties involved" lucidchartObjectId="hqEDrXdxle57" id="HlGu5mULXF9mo92fJl-D-22">
          <mxCell style="html=1;overflow=block;blockSpacing=1;whiteSpace=wrap;;whiteSpace=wrap;fontSize=16.7;fontColor=#333333;spacing=9;strokeColor=#5e5e5e;strokeOpacity=100;rounded=1;absoluteArcSize=1;arcSize=9;strokeWidth=2.3;" parent="1" vertex="1">
            <mxGeometry x="458" y="1029" width="120" height="78" as="geometry" />
          </mxCell>
        </UserObject>
        <UserObject label="Make a Trello card with all the info." lucidchartObjectId="hqEDs6yVUbT5" id="HlGu5mULXF9mo92fJl-D-23">
          <mxCell style="html=1;overflow=block;blockSpacing=1;whiteSpace=wrap;;whiteSpace=wrap;fontSize=16.7;fontColor=#333333;spacing=9;strokeColor=#5e5e5e;strokeOpacity=100;rounded=1;absoluteArcSize=1;arcSize=9;strokeWidth=2.3;" parent="1" vertex="1">
            <mxGeometry x="735" y="1023" width="120" height="90" as="geometry" />
          </mxCell>
        </UserObject>
        <UserObject label="" lucidchartObjectId="hqEDZFYXyNE-" id="HlGu5mULXF9mo92fJl-D-24">
          <mxCell style="html=1;jettySize=18;whiteSpace=wrap;fontSize=13;strokeColor=#5E5E5E;strokeWidth=1.5;rounded=1;arcSize=12;edgeStyle=orthogonalEdgeStyle;startArrow=none;;endArrow=block;endFill=1;;exitX=1.009;exitY=0.5;exitPerimeter=0;entryX=-0.009;entryY=0.5;entryPerimeter=0;" parent="1" source="HlGu5mULXF9mo92fJl-D-22" target="HlGu5mULXF9mo92fJl-D-23" edge="1">
            <mxGeometry width="100" height="100" relative="1" as="geometry">
              <Array as="points" />
            </mxGeometry>
          </mxCell>
        </UserObject>
        <mxCell id="HlGu5mULXF9mo92fJl-D-25" style="edgeStyle=orthogonalEdgeStyle;rounded=0;orthogonalLoop=1;jettySize=auto;html=1;" parent="1" source="HlGu5mULXF9mo92fJl-D-26" target="HlGu5mULXF9mo92fJl-D-33" edge="1">
          <mxGeometry relative="1" as="geometry" />
        </mxCell>
        <UserObject label="Consider options, meet with all General Managers and Executives." lucidchartObjectId="hqEDzJt~u0qP" id="HlGu5mULXF9mo92fJl-D-26">
          <mxCell style="html=1;overflow=block;blockSpacing=1;whiteSpace=wrap;;whiteSpace=wrap;fontSize=16.7;fontColor=#333333;spacing=9;strokeColor=#5e5e5e;strokeOpacity=100;rounded=1;absoluteArcSize=1;arcSize=9;strokeWidth=2.3;" parent="1" vertex="1">
            <mxGeometry x="1013" y="1009" width="158" height="118" as="geometry" />
          </mxCell>
        </UserObject>
        <UserObject label="" lucidchartObjectId="hqEDnRyQi4Ez" id="HlGu5mULXF9mo92fJl-D-27">
          <mxCell style="html=1;jettySize=18;whiteSpace=wrap;fontSize=13;strokeColor=#5E5E5E;strokeWidth=1.5;rounded=1;arcSize=12;edgeStyle=orthogonalEdgeStyle;startArrow=none;;endArrow=block;endFill=1;;exitX=1.009;exitY=0.5;exitPerimeter=0;entryX=-0.007;entryY=0.5;entryPerimeter=0;" parent="1" source="HlGu5mULXF9mo92fJl-D-23" target="HlGu5mULXF9mo92fJl-D-26" edge="1">
            <mxGeometry width="100" height="100" relative="1" as="geometry">
              <Array as="points" />
            </mxGeometry>
          </mxCell>
        </UserObject>
        <mxCell id="HlGu5mULXF9mo92fJl-D-28" style="edgeStyle=orthogonalEdgeStyle;rounded=0;orthogonalLoop=1;jettySize=auto;html=1;" parent="1" source="HlGu5mULXF9mo92fJl-D-29" target="HlGu5mULXF9mo92fJl-D-34" edge="1">
          <mxGeometry relative="1" as="geometry" />
        </mxCell>
        <UserObject label="Inform all the parties involved" lucidchartObjectId="hqEDKGiuaKN8" id="HlGu5mULXF9mo92fJl-D-29">
          <mxCell style="html=1;overflow=block;blockSpacing=1;whiteSpace=wrap;;whiteSpace=wrap;fontSize=16.7;fontColor=#333333;spacing=9;strokeColor=#5e5e5e;strokeOpacity=100;rounded=1;absoluteArcSize=1;arcSize=9;strokeWidth=2.3;" parent="1" vertex="1">
            <mxGeometry x="1485" y="1023" width="120" height="90" as="geometry" />
          </mxCell>
        </UserObject>
        <mxCell id="HlGu5mULXF9mo92fJl-D-35" style="html=1;jettySize=18;whiteSpace=wrap;fontSize=13;strokeColor=#5E5E5E;strokeWidth=1.5;rounded=1;arcSize=12;edgeStyle=orthogonalEdgeStyle;startArrow=none;;endArrow=block;endFill=1;;exitX=0.5;exitY=-0.019;exitPerimeter=0;" parent="1" source="HlGu5mULXF9mo92fJl-D-31" target="HlGu5mULXF9mo92fJl-D-22" edge="1">
          <mxGeometry relative="1" as="geometry">
            <mxPoint x="150.00000000000023" y="1010.0000000000002" as="targetPoint" />
            <Array as="points">
              <mxPoint x="200" y="1068" />
            </Array>
          </mxGeometry>
        </mxCell>
        <UserObject label="Manager-level Legal team member takes over. No contributors allowed." lucidchartObjectId="crEDSrbjGPza" id="HlGu5mULXF9mo92fJl-D-31">
          <mxCell style="html=1;overflow=block;blockSpacing=1;whiteSpace=wrap;;whiteSpace=wrap;fontSize=16.7;fontColor=#333333;spacing=9;strokeColor=#5E5E5E;rounded=1;absoluteArcSize=1;arcSize=9;strokeWidth=2.3;" parent="1" vertex="1">
            <mxGeometry x="130" y="758" width="135" height="139" as="geometry" />
          </mxCell>
        </UserObject>
        <mxCell id="HlGu5mULXF9mo92fJl-D-32" style="edgeStyle=orthogonalEdgeStyle;rounded=0;orthogonalLoop=1;jettySize=auto;html=1;" parent="1" source="HlGu5mULXF9mo92fJl-D-33" target="HlGu5mULXF9mo92fJl-D-29" edge="1">
          <mxGeometry relative="1" as="geometry" />
        </mxCell>
        <UserObject label="Vote on the outcome with GM and EM" lucidchartObjectId="VlEDCqgYlr7M" id="HlGu5mULXF9mo92fJl-D-33">
          <mxCell style="html=1;overflow=block;blockSpacing=1;whiteSpace=wrap;;whiteSpace=wrap;fontSize=16.7;fontColor=#333333;spacing=9;strokeColor=#5e5e5e;strokeOpacity=100;rounded=1;absoluteArcSize=1;arcSize=9;strokeWidth=2.3;" parent="1" vertex="1">
            <mxGeometry x="1260" y="1023" width="140" height="90" as="geometry" />
          </mxCell>
        </UserObject>
        <mxCell id="HlGu5mULXF9mo92fJl-D-38" style="edgeStyle=orthogonalEdgeStyle;rounded=0;orthogonalLoop=1;jettySize=auto;html=1;entryX=0.5;entryY=1;entryDx=0;entryDy=0;fontSize=16.7;fontColor=#333333;" parent="1" source="HlGu5mULXF9mo92fJl-D-34" target="rOXqwB_3zVNSecRi6AGg-50" edge="1">
          <mxGeometry relative="1" as="geometry">
            <Array as="points">
              <mxPoint x="1850" y="1068" />
              <mxPoint x="1850" y="850" />
              <mxPoint x="1740" y="850" />
            </Array>
          </mxGeometry>
        </mxCell>
        <UserObject label="Take action" lucidchartObjectId="cmEDYQ.MPToP" id="HlGu5mULXF9mo92fJl-D-34">
          <mxCell style="html=1;overflow=block;blockSpacing=1;whiteSpace=wrap;;whiteSpace=wrap;fontSize=16.7;fontColor=#333333;spacing=9;strokeColor=#5e5e5e;strokeOpacity=100;rounded=1;absoluteArcSize=1;arcSize=9;strokeWidth=2.3;" parent="1" vertex="1">
            <mxGeometry x="1680" y="1023" width="120" height="90" as="geometry" />
          </mxCell>
        </UserObject>
        <mxCell id="BgTP_DOolfRmvNiGAhl6-7" style="edgeStyle=orthogonalEdgeStyle;orthogonalLoop=1;jettySize=auto;html=1;fontSize=13.3;fontColor=#333333;endArrow=block;endFill=1;strokeColor=#5E5E5E;strokeWidth=1.5;entryX=0.5;entryY=0;entryDx=0;entryDy=0;" edge="1" parent="1" source="BgTP_DOolfRmvNiGAhl6-3" target="BgTP_DOolfRmvNiGAhl6-6">
          <mxGeometry relative="1" as="geometry">
            <mxPoint x="75" y="380" as="targetPoint" />
          </mxGeometry>
        </mxCell>
        <UserObject label="IA team/HR take over ticket" lucidchartObjectId="02DDOMuM8Ttm" id="BgTP_DOolfRmvNiGAhl6-3">
          <mxCell style="html=1;overflow=block;blockSpacing=1;whiteSpace=wrap;;whiteSpace=wrap;fontSize=16.7;fontColor=#333333;spacing=9;strokeColor=#5e5e5e;strokeOpacity=100;rounded=1;absoluteArcSize=1;arcSize=9;strokeWidth=2.3;" vertex="1" parent="1">
            <mxGeometry x="200" y="262" width="120" height="91" as="geometry" />
          </mxCell>
        </UserObject>
        <mxCell id="BgTP_DOolfRmvNiGAhl6-10" style="edgeStyle=orthogonalEdgeStyle;orthogonalLoop=1;jettySize=auto;html=1;exitX=0.5;exitY=1;exitDx=0;exitDy=0;fontSize=13.3;fontColor=#333333;endArrow=block;endFill=1;strokeColor=#5E5E5E;strokeWidth=1.5;entryX=0.5;entryY=0;entryDx=0;entryDy=0;" edge="1" parent="1" source="BgTP_DOolfRmvNiGAhl6-6" target="BgTP_DOolfRmvNiGAhl6-11">
          <mxGeometry relative="1" as="geometry">
            <mxPoint x="75" y="560.0000000000001" as="targetPoint" />
          </mxGeometry>
        </mxCell>
        <mxCell id="BgTP_DOolfRmvNiGAhl6-66" style="edgeStyle=orthogonalEdgeStyle;orthogonalLoop=1;jettySize=auto;html=1;exitX=0;exitY=0.5;exitDx=0;exitDy=0;entryX=0.5;entryY=0;entryDx=0;entryDy=0;fontSize=13.3;fontColor=#333333;endArrow=block;endFill=1;strokeColor=#5E5E5E;strokeWidth=1.5;" edge="1" parent="1" source="BgTP_DOolfRmvNiGAhl6-6" target="BgTP_DOolfRmvNiGAhl6-43">
          <mxGeometry relative="1" as="geometry" />
        </mxCell>
        <UserObject label="Determine severity" lucidchartObjectId="a6DDHZqHAU0q" id="BgTP_DOolfRmvNiGAhl6-6">
          <mxCell style="html=1;overflow=block;blockSpacing=1;whiteSpace=wrap;rhombus;whiteSpace=wrap;fontSize=16.7;fontColor=#333333;spacing=3.8;strokeColor=#5e5e5e;strokeOpacity=100;rounded=1;absoluteArcSize=1;arcSize=9;strokeWidth=2.3;" vertex="1" parent="1">
            <mxGeometry y="390" width="150" height="105" as="geometry" />
          </mxCell>
        </UserObject>
        <mxCell id="BgTP_DOolfRmvNiGAhl6-8" value="Level 1: Affects a Contributor&lt;br&gt;Level 2: Affects between Cont and GM&lt;br&gt;Level 3: Affects EM or GM" style="group;spacingLeft=8;align=left;spacing=0;strokeColor=none;whiteSpace=wrap;fontSize=16.7;fontColor=#333333;strokeOpacity=100;fillOpacity=0;rounded=1;absoluteArcSize=1;arcSize=9;fillColor=#ffffff;strokeWidth=2.3;verticalAlign=top;html=1;" vertex="1" parent="1">
          <mxGeometry x="149" y="401" width="264" height="143" as="geometry" />
        </mxCell>
        <mxCell id="BgTP_DOolfRmvNiGAhl6-9" value="" style="shape=partialRectangle;right=0;fillColor=none;whiteSpace=wrap;fontSize=16.7;fontColor=#333333;strokeColor=#5e5e5e;strokeWidth=2.3;" vertex="1" parent="BgTP_DOolfRmvNiGAhl6-8">
          <mxGeometry width="8" height="90" relative="1" as="geometry">
            <mxPoint y="-1" as="offset" />
          </mxGeometry>
        </mxCell>
        <mxCell id="BgTP_DOolfRmvNiGAhl6-14" style="edgeStyle=orthogonalEdgeStyle;orthogonalLoop=1;jettySize=auto;html=1;exitX=0.5;exitY=1;exitDx=0;exitDy=0;fontSize=13.3;fontColor=#333333;endArrow=block;endFill=1;strokeColor=#5E5E5E;strokeWidth=1.5;" edge="1" parent="1" source="BgTP_DOolfRmvNiGAhl6-11">
          <mxGeometry relative="1" as="geometry">
            <mxPoint x="75" y="920" as="targetPoint" />
          </mxGeometry>
        </mxCell>
        <mxCell id="BgTP_DOolfRmvNiGAhl6-15" value="&lt;div&gt;Yes&lt;/div&gt;" style="edgeLabel;html=1;align=center;verticalAlign=middle;resizable=0;points=[];fontSize=16.7;fontColor=#333333;" vertex="1" connectable="0" parent="BgTP_DOolfRmvNiGAhl6-14">
          <mxGeometry x="-0.214" y="2" relative="1" as="geometry">
            <mxPoint as="offset" />
          </mxGeometry>
        </mxCell>
        <UserObject label="Is the CHRO involved?" lucidchartObjectId="a6DDHZqHAU0q" id="BgTP_DOolfRmvNiGAhl6-11">
          <mxCell style="html=1;overflow=block;blockSpacing=1;whiteSpace=wrap;rhombus;whiteSpace=wrap;fontSize=16.7;fontColor=#333333;spacing=3.8;strokeColor=#5e5e5e;strokeOpacity=100;rounded=1;absoluteArcSize=1;arcSize=9;strokeWidth=2.3;" vertex="1" parent="1">
            <mxGeometry y="610" width="150" height="105" as="geometry" />
          </mxCell>
        </UserObject>
        <mxCell id="BgTP_DOolfRmvNiGAhl6-13" value="Level 3" style="edgeLabel;html=1;align=center;verticalAlign=middle;resizable=0;points=[];fontSize=16.7;fontColor=#333333;" vertex="1" connectable="0" parent="1">
          <mxGeometry x="75.00000033783817" y="525.0000000000001" as="geometry">
            <mxPoint x="-2" y="-5" as="offset" />
          </mxGeometry>
        </mxCell>
        <mxCell id="BgTP_DOolfRmvNiGAhl6-20" style="edgeStyle=orthogonalEdgeStyle;orthogonalLoop=1;jettySize=auto;html=1;fontSize=13.3;fontColor=#333333;endArrow=block;endFill=1;strokeColor=#5E5E5E;strokeWidth=1.5;" edge="1" parent="1" source="BgTP_DOolfRmvNiGAhl6-16" target="BgTP_DOolfRmvNiGAhl6-19">
          <mxGeometry relative="1" as="geometry" />
        </mxCell>
        <UserObject label="Close the ticket, DM the user and Robbie. Make a GC only with Robbie and the user" lucidchartObjectId="hqEDrXdxle57" id="BgTP_DOolfRmvNiGAhl6-16">
          <mxCell style="html=1;overflow=block;blockSpacing=1;whiteSpace=wrap;;whiteSpace=wrap;fontSize=16.7;fontColor=#333333;spacing=9;strokeColor=#5e5e5e;strokeOpacity=100;rounded=1;absoluteArcSize=1;arcSize=9;strokeWidth=2.3;" vertex="1" parent="1">
            <mxGeometry x="15" y="920" width="165" height="120" as="geometry" />
          </mxCell>
        </UserObject>
        <mxCell id="BgTP_DOolfRmvNiGAhl6-18" style="edgeStyle=orthogonalEdgeStyle;orthogonalLoop=1;jettySize=auto;html=1;fontSize=13.3;fontColor=#333333;endArrow=block;endFill=1;strokeColor=#5E5E5E;strokeWidth=1.5;entryX=0.983;entryY=0.593;entryDx=0;entryDy=0;entryPerimeter=0;" edge="1" parent="1" source="BgTP_DOolfRmvNiGAhl6-17" target="BgTP_DOolfRmvNiGAhl6-3">
          <mxGeometry relative="1" as="geometry">
            <mxPoint x="460" y="320" as="targetPoint" />
            <Array as="points">
              <mxPoint x="2270" y="1000" />
              <mxPoint x="430" y="1000" />
              <mxPoint x="430" y="316" />
            </Array>
          </mxGeometry>
        </mxCell>
        <UserObject label="Open HR/IA investigation" lucidchartObjectId="cmEDYQ.MPToP" id="BgTP_DOolfRmvNiGAhl6-17">
          <mxCell style="html=1;overflow=block;blockSpacing=1;whiteSpace=wrap;;whiteSpace=wrap;fontSize=16.7;fontColor=#333333;spacing=9;strokeColor=#5e5e5e;strokeOpacity=100;rounded=1;absoluteArcSize=1;arcSize=9;strokeWidth=2.3;" vertex="1" parent="1">
            <mxGeometry x="2210" y="930" width="120" height="60" as="geometry" />
          </mxCell>
        </UserObject>
        <mxCell id="BgTP_DOolfRmvNiGAhl6-65" style="edgeStyle=orthogonalEdgeStyle;orthogonalLoop=1;jettySize=auto;html=1;entryX=0;entryY=0.5;entryDx=0;entryDy=0;fontSize=13.3;fontColor=#333333;endArrow=block;endFill=1;strokeColor=#5E5E5E;strokeWidth=1.5;" edge="1" parent="1" source="BgTP_DOolfRmvNiGAhl6-19" target="BgTP_DOolfRmvNiGAhl6-54">
          <mxGeometry relative="1" as="geometry">
            <Array as="points">
              <mxPoint x="98" y="1349" />
            </Array>
          </mxGeometry>
        </mxCell>
        <UserObject label="If deemed appropiate, a GC will be made with all EM, without the CHRO. " lucidchartObjectId="hqEDrXdxle57" id="BgTP_DOolfRmvNiGAhl6-19">
          <mxCell style="html=1;overflow=block;blockSpacing=1;whiteSpace=wrap;;whiteSpace=wrap;fontSize=16.7;fontColor=#333333;spacing=9;strokeColor=#5e5e5e;strokeOpacity=100;rounded=1;absoluteArcSize=1;arcSize=9;strokeWidth=2.3;" vertex="1" parent="1">
            <mxGeometry x="15" y="1127" width="165" height="120" as="geometry" />
          </mxCell>
        </UserObject>
        <UserObject label="Interview the parties involved" lucidchartObjectId="hqEDrXdxle57" id="BgTP_DOolfRmvNiGAhl6-34">
          <mxCell style="html=1;overflow=block;blockSpacing=1;whiteSpace=wrap;;whiteSpace=wrap;fontSize=16.7;fontColor=#333333;spacing=9;strokeColor=#5e5e5e;strokeOpacity=100;rounded=1;absoluteArcSize=1;arcSize=9;strokeWidth=2.3;" vertex="1" parent="1">
            <mxGeometry x="458" y="1163.32" width="120" height="78" as="geometry" />
          </mxCell>
        </UserObject>
        <UserObject label="Make a Trello card with all the info." lucidchartObjectId="hqEDs6yVUbT5" id="BgTP_DOolfRmvNiGAhl6-35">
          <mxCell style="html=1;overflow=block;blockSpacing=1;whiteSpace=wrap;;whiteSpace=wrap;fontSize=16.7;fontColor=#333333;spacing=9;strokeColor=#5e5e5e;strokeOpacity=100;rounded=1;absoluteArcSize=1;arcSize=9;strokeWidth=2.3;" vertex="1" parent="1">
            <mxGeometry x="735" y="1157.32" width="120" height="90" as="geometry" />
          </mxCell>
        </UserObject>
        <UserObject label="" lucidchartObjectId="hqEDZFYXyNE-" id="BgTP_DOolfRmvNiGAhl6-36">
          <mxCell style="html=1;jettySize=18;whiteSpace=wrap;fontSize=13;strokeColor=#5E5E5E;strokeWidth=1.5;rounded=1;arcSize=12;edgeStyle=orthogonalEdgeStyle;startArrow=none;;endArrow=block;endFill=1;;exitX=1.009;exitY=0.5;exitPerimeter=0;entryX=-0.009;entryY=0.5;entryPerimeter=0;" edge="1" parent="1" source="BgTP_DOolfRmvNiGAhl6-34" target="BgTP_DOolfRmvNiGAhl6-35">
            <mxGeometry width="100" height="100" relative="1" as="geometry">
              <Array as="points" />
            </mxGeometry>
          </mxCell>
        </UserObject>
        <mxCell id="BgTP_DOolfRmvNiGAhl6-37" style="edgeStyle=orthogonalEdgeStyle;rounded=0;orthogonalLoop=1;jettySize=auto;html=1;" edge="1" parent="1" source="BgTP_DOolfRmvNiGAhl6-38" target="BgTP_DOolfRmvNiGAhl6-45">
          <mxGeometry relative="1" as="geometry" />
        </mxCell>
        <UserObject label="Consider  options, meet with other IA team members and GM/EM (HR)." lucidchartObjectId="hqEDzJt~u0qP" id="BgTP_DOolfRmvNiGAhl6-38">
          <mxCell style="html=1;overflow=block;blockSpacing=1;whiteSpace=wrap;;whiteSpace=wrap;fontSize=16.7;fontColor=#333333;spacing=9;strokeColor=#5e5e5e;strokeOpacity=100;rounded=1;absoluteArcSize=1;arcSize=9;strokeWidth=2.3;" vertex="1" parent="1">
            <mxGeometry x="1013" y="1143.32" width="158" height="118" as="geometry" />
          </mxCell>
        </UserObject>
        <UserObject label="" lucidchartObjectId="hqEDnRyQi4Ez" id="BgTP_DOolfRmvNiGAhl6-39">
          <mxCell style="html=1;jettySize=18;whiteSpace=wrap;fontSize=13;strokeColor=#5E5E5E;strokeWidth=1.5;rounded=1;arcSize=12;edgeStyle=orthogonalEdgeStyle;startArrow=none;;endArrow=block;endFill=1;;exitX=1.009;exitY=0.5;exitPerimeter=0;entryX=-0.007;entryY=0.5;entryPerimeter=0;" edge="1" parent="1" source="BgTP_DOolfRmvNiGAhl6-35" target="BgTP_DOolfRmvNiGAhl6-38">
            <mxGeometry width="100" height="100" relative="1" as="geometry">
              <Array as="points" />
            </mxGeometry>
          </mxCell>
        </UserObject>
        <mxCell id="BgTP_DOolfRmvNiGAhl6-40" style="edgeStyle=orthogonalEdgeStyle;rounded=0;orthogonalLoop=1;jettySize=auto;html=1;" edge="1" parent="1" source="BgTP_DOolfRmvNiGAhl6-41" target="BgTP_DOolfRmvNiGAhl6-46">
          <mxGeometry relative="1" as="geometry" />
        </mxCell>
        <UserObject label="Inform all the parties involved" lucidchartObjectId="hqEDKGiuaKN8" id="BgTP_DOolfRmvNiGAhl6-41">
          <mxCell style="html=1;overflow=block;blockSpacing=1;whiteSpace=wrap;;whiteSpace=wrap;fontSize=16.7;fontColor=#333333;spacing=9;strokeColor=#5e5e5e;strokeOpacity=100;rounded=1;absoluteArcSize=1;arcSize=9;strokeWidth=2.3;" vertex="1" parent="1">
            <mxGeometry x="1485" y="1157.32" width="120" height="90" as="geometry" />
          </mxCell>
        </UserObject>
        <mxCell id="BgTP_DOolfRmvNiGAhl6-42" style="html=1;jettySize=18;whiteSpace=wrap;fontSize=13;strokeColor=#5E5E5E;strokeWidth=1.5;rounded=1;arcSize=12;edgeStyle=orthogonalEdgeStyle;startArrow=none;;endArrow=block;endFill=1;;exitX=0.5;exitY=1;exitDx=0;exitDy=0;" edge="1" parent="1" source="BgTP_DOolfRmvNiGAhl6-43" target="BgTP_DOolfRmvNiGAhl6-34">
          <mxGeometry relative="1" as="geometry">
            <mxPoint x="322.5" y="1170.7485714285715" as="targetPoint" />
            <Array as="points">
              <mxPoint x="-122" y="1090" />
              <mxPoint x="322" y="1090" />
              <mxPoint x="322" y="1202" />
            </Array>
          </mxGeometry>
        </mxCell>
        <UserObject label="Contributor-level HRteam member takes over with GM/EM supervision" lucidchartObjectId="crEDSrbjGPza" id="BgTP_DOolfRmvNiGAhl6-43">
          <mxCell style="html=1;overflow=block;blockSpacing=1;whiteSpace=wrap;;whiteSpace=wrap;fontSize=16.7;fontColor=#333333;spacing=9;strokeColor=#5E5E5E;rounded=1;absoluteArcSize=1;arcSize=9;strokeWidth=2.3;" vertex="1" parent="1">
            <mxGeometry x="-190" y="896.9999999999999" width="135" height="139" as="geometry" />
          </mxCell>
        </UserObject>
        <mxCell id="BgTP_DOolfRmvNiGAhl6-44" style="edgeStyle=orthogonalEdgeStyle;rounded=0;orthogonalLoop=1;jettySize=auto;html=1;" edge="1" parent="1" source="BgTP_DOolfRmvNiGAhl6-45" target="BgTP_DOolfRmvNiGAhl6-41">
          <mxGeometry relative="1" as="geometry" />
        </mxCell>
        <UserObject label="Vote on the outcome with IA team + GM/EM (HR)" lucidchartObjectId="VlEDCqgYlr7M" id="BgTP_DOolfRmvNiGAhl6-45">
          <mxCell style="html=1;overflow=block;blockSpacing=1;whiteSpace=wrap;;whiteSpace=wrap;fontSize=16.7;fontColor=#333333;spacing=9;strokeColor=#5e5e5e;strokeOpacity=100;rounded=1;absoluteArcSize=1;arcSize=9;strokeWidth=2.3;" vertex="1" parent="1">
            <mxGeometry x="1260" y="1157.32" width="140" height="90" as="geometry" />
          </mxCell>
        </UserObject>
        <mxCell id="BgTP_DOolfRmvNiGAhl6-47" style="edgeStyle=orthogonalEdgeStyle;orthogonalLoop=1;jettySize=auto;html=1;fontSize=13.3;fontColor=#333333;endArrow=block;endFill=1;strokeColor=#5E5E5E;strokeWidth=1.5;entryX=0.5;entryY=0;entryDx=0;entryDy=0;startArrow=none;" edge="1" parent="1" source="BgTP_DOolfRmvNiGAhl6-49" target="HlGu5mULXF9mo92fJl-D-13">
          <mxGeometry relative="1" as="geometry">
            <mxPoint x="2150" y="940" as="targetPoint" />
            <Array as="points">
              <mxPoint x="2420" y="1202" />
              <mxPoint x="2420" y="610" />
              <mxPoint x="2270" y="610" />
            </Array>
          </mxGeometry>
        </mxCell>
        <mxCell id="BgTP_DOolfRmvNiGAhl6-64" style="edgeStyle=orthogonalEdgeStyle;orthogonalLoop=1;jettySize=auto;html=1;entryX=0;entryY=0.5;entryDx=0;entryDy=0;fontSize=13.3;fontColor=#333333;endArrow=block;endFill=1;strokeColor=#5E5E5E;strokeWidth=1.5;" edge="1" parent="1" source="BgTP_DOolfRmvNiGAhl6-46" target="BgTP_DOolfRmvNiGAhl6-49">
          <mxGeometry relative="1" as="geometry" />
        </mxCell>
        <UserObject label="Take action" lucidchartObjectId="cmEDYQ.MPToP" id="BgTP_DOolfRmvNiGAhl6-46">
          <mxCell style="html=1;overflow=block;blockSpacing=1;whiteSpace=wrap;;whiteSpace=wrap;fontSize=16.7;fontColor=#333333;spacing=9;strokeColor=#5e5e5e;strokeOpacity=100;rounded=1;absoluteArcSize=1;arcSize=9;strokeWidth=2.3;" vertex="1" parent="1">
            <mxGeometry x="1680" y="1157.32" width="120" height="90" as="geometry" />
          </mxCell>
        </UserObject>
        <mxCell id="BgTP_DOolfRmvNiGAhl6-52" style="edgeStyle=orthogonalEdgeStyle;orthogonalLoop=1;jettySize=auto;html=1;exitX=0.5;exitY=0;exitDx=0;exitDy=0;fontSize=13.3;fontColor=#333333;endArrow=block;endFill=1;strokeColor=#5E5E5E;strokeWidth=1.5;entryX=0.5;entryY=1;entryDx=0;entryDy=0;" edge="1" parent="1" source="BgTP_DOolfRmvNiGAhl6-49" target="rOXqwB_3zVNSecRi6AGg-59">
          <mxGeometry relative="1" as="geometry">
            <mxPoint x="2070" y="930" as="targetPoint" />
            <Array as="points">
              <mxPoint x="2060" y="870" />
              <mxPoint x="1868" y="870" />
            </Array>
          </mxGeometry>
        </mxCell>
        <mxCell id="BgTP_DOolfRmvNiGAhl6-53" value="Supervisor only" style="edgeLabel;html=1;align=center;verticalAlign=middle;resizable=0;points=[];fontSize=13.3;fontColor=#333333;" vertex="1" connectable="0" parent="BgTP_DOolfRmvNiGAhl6-52">
          <mxGeometry x="-0.723" y="-7" relative="1" as="geometry">
            <mxPoint x="-17" as="offset" />
          </mxGeometry>
        </mxCell>
        <UserObject label="AND" lucidchartObjectId="9mEDw0mcLWSL" id="BgTP_DOolfRmvNiGAhl6-49">
          <mxCell style="ellipse;whiteSpace=wrap;html=1;aspect=fixed;fontFamily=Helvetica;fontSize=13;fontColor=#000000;align=center;strokeColor=#5e5e5e;strokeWidth=2.3;fillColor=#ffffff;" vertex="1" parent="1">
            <mxGeometry x="2030" y="1172.32" width="60" height="60" as="geometry" />
          </mxCell>
        </UserObject>
        <mxCell id="BgTP_DOolfRmvNiGAhl6-50" value="" style="edgeStyle=orthogonalEdgeStyle;orthogonalLoop=1;jettySize=auto;html=1;fontSize=13.3;fontColor=#333333;endArrow=none;endFill=1;strokeColor=#5E5E5E;strokeWidth=1.5;entryX=0;entryY=0.5;entryDx=0;entryDy=0;" edge="1" parent="1" source="BgTP_DOolfRmvNiGAhl6-46" target="BgTP_DOolfRmvNiGAhl6-49">
          <mxGeometry relative="1" as="geometry">
            <mxPoint x="2020" y="1202" as="targetPoint" />
            <mxPoint x="1800" y="1202.2941176470588" as="sourcePoint" />
          </mxGeometry>
        </mxCell>
        <mxCell id="BgTP_DOolfRmvNiGAhl6-51" value="GM+ only" style="edgeLabel;html=1;align=center;verticalAlign=middle;resizable=0;points=[];fontSize=13.3;fontColor=#333333;" vertex="1" connectable="0" parent="BgTP_DOolfRmvNiGAhl6-50">
          <mxGeometry x="-0.7506" y="-1" relative="1" as="geometry">
            <mxPoint x="423" y="-1" as="offset" />
          </mxGeometry>
        </mxCell>
        <UserObject label="Interview the parties involved" lucidchartObjectId="hqEDrXdxle57" id="BgTP_DOolfRmvNiGAhl6-54">
          <mxCell style="html=1;overflow=block;blockSpacing=1;whiteSpace=wrap;;whiteSpace=wrap;fontSize=16.7;fontColor=#333333;spacing=9;strokeColor=#5e5e5e;strokeOpacity=100;rounded=1;absoluteArcSize=1;arcSize=9;strokeWidth=2.3;" vertex="1" parent="1">
            <mxGeometry x="458" y="1310" width="120" height="78" as="geometry" />
          </mxCell>
        </UserObject>
        <UserObject label="" lucidchartObjectId="hqEDZFYXyNE-" id="BgTP_DOolfRmvNiGAhl6-55">
          <mxCell style="html=1;jettySize=18;whiteSpace=wrap;fontSize=13;strokeColor=#5E5E5E;strokeWidth=1.5;rounded=1;arcSize=12;edgeStyle=orthogonalEdgeStyle;startArrow=none;;endArrow=block;endFill=1;;exitX=1.009;exitY=0.5;exitPerimeter=0;" edge="1" parent="1" source="BgTP_DOolfRmvNiGAhl6-54">
            <mxGeometry width="100" height="100" relative="1" as="geometry">
              <Array as="points" />
              <mxPoint x="734" y="1349" as="targetPoint" />
            </mxGeometry>
          </mxCell>
        </UserObject>
        <mxCell id="BgTP_DOolfRmvNiGAhl6-56" style="edgeStyle=orthogonalEdgeStyle;rounded=0;orthogonalLoop=1;jettySize=auto;html=1;" edge="1" parent="1" source="BgTP_DOolfRmvNiGAhl6-57" target="BgTP_DOolfRmvNiGAhl6-61">
          <mxGeometry relative="1" as="geometry" />
        </mxCell>
        <UserObject label="Consider  options, meet with GM/EM" lucidchartObjectId="hqEDzJt~u0qP" id="BgTP_DOolfRmvNiGAhl6-57">
          <mxCell style="html=1;overflow=block;blockSpacing=1;whiteSpace=wrap;;whiteSpace=wrap;fontSize=16.7;fontColor=#333333;spacing=9;strokeColor=#5e5e5e;strokeOpacity=100;rounded=1;absoluteArcSize=1;arcSize=9;strokeWidth=2.3;" vertex="1" parent="1">
            <mxGeometry x="735" y="1310" width="158" height="80" as="geometry" />
          </mxCell>
        </UserObject>
        <mxCell id="BgTP_DOolfRmvNiGAhl6-58" style="edgeStyle=orthogonalEdgeStyle;rounded=0;orthogonalLoop=1;jettySize=auto;html=1;" edge="1" parent="1" source="BgTP_DOolfRmvNiGAhl6-59">
          <mxGeometry relative="1" as="geometry">
            <mxPoint x="1405" y="1349" as="targetPoint" />
          </mxGeometry>
        </mxCell>
        <UserObject label="Inform all the parties involved" lucidchartObjectId="hqEDKGiuaKN8" id="BgTP_DOolfRmvNiGAhl6-59">
          <mxCell style="html=1;overflow=block;blockSpacing=1;whiteSpace=wrap;;whiteSpace=wrap;fontSize=16.7;fontColor=#333333;spacing=9;strokeColor=#5e5e5e;strokeOpacity=100;rounded=1;absoluteArcSize=1;arcSize=9;strokeWidth=2.3;" vertex="1" parent="1">
            <mxGeometry x="1210" y="1304" width="120" height="90" as="geometry" />
          </mxCell>
        </UserObject>
        <mxCell id="BgTP_DOolfRmvNiGAhl6-60" style="edgeStyle=orthogonalEdgeStyle;rounded=0;orthogonalLoop=1;jettySize=auto;html=1;" edge="1" parent="1" source="BgTP_DOolfRmvNiGAhl6-61" target="BgTP_DOolfRmvNiGAhl6-59">
          <mxGeometry relative="1" as="geometry" />
        </mxCell>
        <UserObject label="Vote on the outcome with GM/EM" lucidchartObjectId="VlEDCqgYlr7M" id="BgTP_DOolfRmvNiGAhl6-61">
          <mxCell style="html=1;overflow=block;blockSpacing=1;whiteSpace=wrap;;whiteSpace=wrap;fontSize=16.7;fontColor=#333333;spacing=9;strokeColor=#5e5e5e;strokeOpacity=100;rounded=1;absoluteArcSize=1;arcSize=9;strokeWidth=2.3;" vertex="1" parent="1">
            <mxGeometry x="985" y="1304" width="140" height="90" as="geometry" />
          </mxCell>
        </UserObject>
        <mxCell id="BgTP_DOolfRmvNiGAhl6-63" style="edgeStyle=orthogonalEdgeStyle;orthogonalLoop=1;jettySize=auto;html=1;entryX=0.5;entryY=1;entryDx=0;entryDy=0;fontSize=13.3;fontColor=#333333;endArrow=block;endFill=1;strokeColor=#5E5E5E;strokeWidth=1.5;" edge="1" parent="1" source="BgTP_DOolfRmvNiGAhl6-62" target="BgTP_DOolfRmvNiGAhl6-49">
          <mxGeometry relative="1" as="geometry" />
        </mxCell>
        <UserObject label="Take action" lucidchartObjectId="cmEDYQ.MPToP" id="BgTP_DOolfRmvNiGAhl6-62">
          <mxCell style="html=1;overflow=block;blockSpacing=1;whiteSpace=wrap;;whiteSpace=wrap;fontSize=16.7;fontColor=#333333;spacing=9;strokeColor=#5e5e5e;strokeOpacity=100;rounded=1;absoluteArcSize=1;arcSize=9;strokeWidth=2.3;" vertex="1" parent="1">
            <mxGeometry x="1408" y="1304" width="120" height="90" as="geometry" />
          </mxCell>
        </UserObject>
        <mxCell id="BgTP_DOolfRmvNiGAhl6-68" value="&lt;div&gt;Level 1&lt;br&gt;&lt;/div&gt;" style="edgeLabel;html=1;align=center;verticalAlign=middle;resizable=0;points=[];fontSize=16.7;fontColor=#333333;" vertex="1" connectable="0" parent="1">
          <mxGeometry x="-122.50500000000011" y="673.4988235294118" as="geometry" />
        </mxCell>
        <mxCell id="BgTP_DOolfRmvNiGAhl6-69" value="&lt;div&gt;Level 1&lt;br&gt;&lt;/div&gt;" style="edgeLabel;html=1;align=center;verticalAlign=middle;resizable=0;points=[];fontSize=16.7;fontColor=#333333;" vertex="1" connectable="0" parent="1">
          <mxGeometry x="649.9949999999999" y="652.4988235294118" as="geometry" />
        </mxCell>
        <mxCell id="BgTP_DOolfRmvNiGAhl6-71" style="edgeStyle=orthogonalEdgeStyle;orthogonalLoop=1;jettySize=auto;html=1;exitX=0;exitY=0.5;exitDx=0;exitDy=0;entryX=0.5;entryY=0;entryDx=0;entryDy=0;fontSize=13.3;fontColor=#333333;endArrow=block;endFill=1;strokeColor=#5E5E5E;strokeWidth=1.5;" edge="1" parent="1" target="BgTP_DOolfRmvNiGAhl6-81" source="BgTP_DOolfRmvNiGAhl6-6">
          <mxGeometry relative="1" as="geometry">
            <mxPoint y="744" as="sourcePoint" />
            <Array as="points">
              <mxPoint y="440" />
              <mxPoint x="-302" y="440" />
            </Array>
          </mxGeometry>
        </mxCell>
        <UserObject label="Interview the parties involved" lucidchartObjectId="hqEDrXdxle57" id="BgTP_DOolfRmvNiGAhl6-72">
          <mxCell style="html=1;overflow=block;blockSpacing=1;whiteSpace=wrap;;whiteSpace=wrap;fontSize=16.7;fontColor=#333333;spacing=9;strokeColor=#5e5e5e;strokeOpacity=100;rounded=1;absoluteArcSize=1;arcSize=9;strokeWidth=2.3;" vertex="1" parent="1">
            <mxGeometry x="458" y="1464.82" width="120" height="78" as="geometry" />
          </mxCell>
        </UserObject>
        <UserObject label="Make a Trello card with all the info." lucidchartObjectId="hqEDs6yVUbT5" id="BgTP_DOolfRmvNiGAhl6-73">
          <mxCell style="html=1;overflow=block;blockSpacing=1;whiteSpace=wrap;;whiteSpace=wrap;fontSize=16.7;fontColor=#333333;spacing=9;strokeColor=#5e5e5e;strokeOpacity=100;rounded=1;absoluteArcSize=1;arcSize=9;strokeWidth=2.3;" vertex="1" parent="1">
            <mxGeometry x="735" y="1458.82" width="120" height="90" as="geometry" />
          </mxCell>
        </UserObject>
        <UserObject label="" lucidchartObjectId="hqEDZFYXyNE-" id="BgTP_DOolfRmvNiGAhl6-74">
          <mxCell style="html=1;jettySize=18;whiteSpace=wrap;fontSize=13;strokeColor=#5E5E5E;strokeWidth=1.5;rounded=1;arcSize=12;edgeStyle=orthogonalEdgeStyle;startArrow=none;;endArrow=block;endFill=1;;exitX=1.009;exitY=0.5;exitPerimeter=0;entryX=-0.009;entryY=0.5;entryPerimeter=0;" edge="1" parent="1" source="BgTP_DOolfRmvNiGAhl6-72" target="BgTP_DOolfRmvNiGAhl6-73">
            <mxGeometry width="100" height="100" relative="1" as="geometry">
              <Array as="points" />
            </mxGeometry>
          </mxCell>
        </UserObject>
        <mxCell id="BgTP_DOolfRmvNiGAhl6-75" style="edgeStyle=orthogonalEdgeStyle;rounded=0;orthogonalLoop=1;jettySize=auto;html=1;" edge="1" parent="1" source="BgTP_DOolfRmvNiGAhl6-76" target="BgTP_DOolfRmvNiGAhl6-83">
          <mxGeometry relative="1" as="geometry" />
        </mxCell>
        <UserObject label="Consider  options, meet with other IA team members and GM/EM (HR)." lucidchartObjectId="hqEDzJt~u0qP" id="BgTP_DOolfRmvNiGAhl6-76">
          <mxCell style="html=1;overflow=block;blockSpacing=1;whiteSpace=wrap;;whiteSpace=wrap;fontSize=16.7;fontColor=#333333;spacing=9;strokeColor=#5e5e5e;strokeOpacity=100;rounded=1;absoluteArcSize=1;arcSize=9;strokeWidth=2.3;" vertex="1" parent="1">
            <mxGeometry x="1013" y="1444.82" width="158" height="118" as="geometry" />
          </mxCell>
        </UserObject>
        <UserObject label="" lucidchartObjectId="hqEDnRyQi4Ez" id="BgTP_DOolfRmvNiGAhl6-77">
          <mxCell style="html=1;jettySize=18;whiteSpace=wrap;fontSize=13;strokeColor=#5E5E5E;strokeWidth=1.5;rounded=1;arcSize=12;edgeStyle=orthogonalEdgeStyle;startArrow=none;;endArrow=block;endFill=1;;exitX=1.009;exitY=0.5;exitPerimeter=0;entryX=-0.007;entryY=0.5;entryPerimeter=0;" edge="1" parent="1" source="BgTP_DOolfRmvNiGAhl6-73" target="BgTP_DOolfRmvNiGAhl6-76">
            <mxGeometry width="100" height="100" relative="1" as="geometry">
              <Array as="points" />
            </mxGeometry>
          </mxCell>
        </UserObject>
        <mxCell id="BgTP_DOolfRmvNiGAhl6-78" style="edgeStyle=orthogonalEdgeStyle;rounded=0;orthogonalLoop=1;jettySize=auto;html=1;" edge="1" parent="1" source="BgTP_DOolfRmvNiGAhl6-79" target="BgTP_DOolfRmvNiGAhl6-84">
          <mxGeometry relative="1" as="geometry" />
        </mxCell>
        <UserObject label="Inform all the parties involved" lucidchartObjectId="hqEDKGiuaKN8" id="BgTP_DOolfRmvNiGAhl6-79">
          <mxCell style="html=1;overflow=block;blockSpacing=1;whiteSpace=wrap;;whiteSpace=wrap;fontSize=16.7;fontColor=#333333;spacing=9;strokeColor=#5e5e5e;strokeOpacity=100;rounded=1;absoluteArcSize=1;arcSize=9;strokeWidth=2.3;" vertex="1" parent="1">
            <mxGeometry x="1485" y="1458.82" width="120" height="90" as="geometry" />
          </mxCell>
        </UserObject>
        <mxCell id="BgTP_DOolfRmvNiGAhl6-80" style="html=1;jettySize=18;whiteSpace=wrap;fontSize=13;strokeColor=#5E5E5E;strokeWidth=1.5;rounded=1;arcSize=12;edgeStyle=orthogonalEdgeStyle;startArrow=none;;endArrow=block;endFill=1;;exitX=0.5;exitY=1;exitDx=0;exitDy=0;" edge="1" parent="1" source="BgTP_DOolfRmvNiGAhl6-81" target="BgTP_DOolfRmvNiGAhl6-72">
          <mxGeometry relative="1" as="geometry">
            <mxPoint x="322.5" y="1472.2485714285715" as="targetPoint" />
            <Array as="points">
              <mxPoint x="-302" y="1504" />
            </Array>
          </mxGeometry>
        </mxCell>
        <UserObject label="Team Lead/ Management Assistant+ (HR) takes over the ticket" lucidchartObjectId="crEDSrbjGPza" id="BgTP_DOolfRmvNiGAhl6-81">
          <mxCell style="html=1;overflow=block;blockSpacing=1;whiteSpace=wrap;;whiteSpace=wrap;fontSize=16.7;fontColor=#333333;spacing=9;strokeColor=#5E5E5E;rounded=1;absoluteArcSize=1;arcSize=9;strokeWidth=2.3;" vertex="1" parent="1">
            <mxGeometry x="-370" y="1190" width="135" height="139" as="geometry" />
          </mxCell>
        </UserObject>
        <mxCell id="BgTP_DOolfRmvNiGAhl6-82" style="edgeStyle=orthogonalEdgeStyle;rounded=0;orthogonalLoop=1;jettySize=auto;html=1;" edge="1" parent="1" source="BgTP_DOolfRmvNiGAhl6-83" target="BgTP_DOolfRmvNiGAhl6-79">
          <mxGeometry relative="1" as="geometry" />
        </mxCell>
        <UserObject label="Vote on the outcome with IA team + GM/EM (HR)" lucidchartObjectId="VlEDCqgYlr7M" id="BgTP_DOolfRmvNiGAhl6-83">
          <mxCell style="html=1;overflow=block;blockSpacing=1;whiteSpace=wrap;;whiteSpace=wrap;fontSize=16.7;fontColor=#333333;spacing=9;strokeColor=#5e5e5e;strokeOpacity=100;rounded=1;absoluteArcSize=1;arcSize=9;strokeWidth=2.3;" vertex="1" parent="1">
            <mxGeometry x="1260" y="1458.82" width="140" height="90" as="geometry" />
          </mxCell>
        </UserObject>
        <mxCell id="BgTP_DOolfRmvNiGAhl6-87" style="edgeStyle=orthogonalEdgeStyle;orthogonalLoop=1;jettySize=auto;html=1;exitX=1;exitY=0.5;exitDx=0;exitDy=0;entryX=0.5;entryY=1;entryDx=0;entryDy=0;fontSize=13.3;fontColor=#333333;endArrow=block;endFill=1;strokeColor=#5E5E5E;strokeWidth=1.5;" edge="1" parent="1" source="BgTP_DOolfRmvNiGAhl6-84" target="BgTP_DOolfRmvNiGAhl6-49">
          <mxGeometry relative="1" as="geometry" />
        </mxCell>
        <UserObject label="Take action" lucidchartObjectId="cmEDYQ.MPToP" id="BgTP_DOolfRmvNiGAhl6-84">
          <mxCell style="html=1;overflow=block;blockSpacing=1;whiteSpace=wrap;;whiteSpace=wrap;fontSize=16.7;fontColor=#333333;spacing=9;strokeColor=#5e5e5e;strokeOpacity=100;rounded=1;absoluteArcSize=1;arcSize=9;strokeWidth=2.3;" vertex="1" parent="1">
            <mxGeometry x="1680" y="1458.82" width="120" height="90" as="geometry" />
          </mxCell>
        </UserObject>
        <mxCell id="BgTP_DOolfRmvNiGAhl6-86" value="&lt;div&gt;Level 2&lt;br&gt;&lt;/div&gt;" style="edgeLabel;html=1;align=center;verticalAlign=middle;resizable=0;points=[];fontSize=16.7;fontColor=#333333;" vertex="1" connectable="0" parent="1">
          <mxGeometry x="-302.4950000000001" y="673.4988235294118" as="geometry" />
        </mxCell>
      </root>
    </mxGraphModel>
  </diagram>
</mxfile>
